<?xml version="1.0" encoding="UTF-8" standalone="no"?>
<svg
   width="373"
   height="90"
   viewBox="0 0 373 90"
   fill="none"
   version="1.1"
   id="svg8"
   sodipodi:docname="theo-black.svg"
   inkscape:version="1.2.2 (b0a8486, 2022-12-01)"
   xmlns:inkscape="http://www.inkscape.org/namespaces/inkscape"
   xmlns:sodipodi="http://sodipodi.sourceforge.net/DTD/sodipodi-0.dtd"
   xmlns="http://www.w3.org/2000/svg"
   xmlns:svg="http://www.w3.org/2000/svg">
  <defs
     id="defs12" />
  <sodipodi:namedview
     id="namedview10"
     pagecolor="#ffffff"
     bordercolor="#000000"
     borderopacity="0.25"
     inkscape:showpageshadow="2"
     inkscape:pageopacity="0.0"
     inkscape:pagecheckerboard="0"
     inkscape:deskcolor="#d1d1d1"
     showgrid="false"
     inkscape:zoom="3.536193"
     inkscape:cx="191.73161"
     inkscape:cy="3.9590599"
     inkscape:window-width="1463"
     inkscape:window-height="1014"
     inkscape:window-x="-5"
     inkscape:window-y="25"
     inkscape:window-maximized="0"
     inkscape:current-layer="svg8" />
  <path
     d="m 249.38962,42.0846 c 53.44043,42.199511 -54.09079,31.302634 -87.69627,41.029002 -3.4739,1.482 -7.2151,3.0313 -11.2234,4.6479 -4.0084,1.6167 -8.0168,2.3577 -12.0252,2.2229 -4.4092,-0.2694 -7.0814,-1.4819 -8.0167,-3.6374 -0.9353,-2.1556 -0.7349,-4.85 0.6012,-8.0833 1.2025,-3.3681 3.1399,-6.9382 5.8122,-10.7104 2.6722,-3.9069 5.4781,-7.6118 8.4176,-11.1145 3.0731,-3.5028 5.8789,-6.534 8.4176,-9.0938 2.5386,-2.6944 4.2088,-4.4458 5.0104,-5.2541 l 2.8059,-2.829202 h -11.4239 c -3.7411,0 -7.5491,0.0674 -11.4239,0.2021 -7.7495,0.2695 -15.4322,0.6736 -23.0481,1.2125 -7.7496,0.4042 -15.4991,1.010402 -23.248599,1.818802 -2.8059,0.4041 -5.5449,0.8083 -8.2172,1.2125 -2.8059,0.2694 -5.61173,0.7409 -8.41759,1.4145 -0.66807,0.1348 -1.40294,0.3368 -2.20461,0.6063 -0.80168,0.2694 -1.53655,0.2694 -2.20461,0 -1.46974,-0.5389 -2.13781,-1.482 -2.00419,-2.8292 0,-1.481902 0.66806,-2.425002 2.00419,-2.829102 16.03351,-4.1764 32.534709,-6.8035 49.503509,-7.8812 16.9688,-1.2125 33.7371,-1.9535 50.3056,-2.223 3.473,-3.2333 6.947,-6.3992 10.421,-9.4978 3.474,-3.0986 7.015,-6.1972 10.622,-9.295801 1.737,-1.6166896 3.742,-3.6375096 6.013,-6.0624996 2.405,-2.5597098 4.81,-4.17636981 7.215,-4.84997681 1.336,-0.404168 2.472,-0.336807 3.407,0.20208 1.069,0.404164 1.871,1.14513701 2.405,2.22290701 0.535,0.94305 0.735,2.0208298 0.602,3.2333198 -0.134,1.2125 -0.669,2.29027 -1.604,3.23332 -4.142,3.5027496 -8.217,7.0055506 -12.225,10.5082506 -4.009,3.3681 -7.95,6.8708 -11.825,10.5083 2.004,0 3.875,0.2695 5.612,0.8084 1.603,0.4041 3.006,1.0777 4.208,2.0208 1.337,0.943 2.272,2.3576 2.806,4.2437 0.401,1.6167 0.201,3.0313 -0.601,4.243802 -0.802,1.0777 -1.804,1.8861 -3.006,2.4249 -1.203,0.4042 -2.472,0.4716 -3.808,0.2021 -1.203,-0.4041 -2.138,-1.2798 -2.806,-2.627 -1.737,-0.673702 -3.741,-1.145202 -6.013,-1.414602 -2.271,-0.4042 -4.409,-0.6063 -6.413,-0.6063 l -2.004,1.8188 c -5.4783,5.254102 -11.2905,10.912402 -17.4367,16.974902 -6.0125,6.0625 -10.7558,12.5965 -14.2297,19.602 4.6764,-0.9431 27.86785,-8.51168 32.81155,-10.26308 26.96601,-12.844608 42.74155,3.719499 70.04575,-7.97439 5.344,-5.1195 -19.78632,-17.38934 -18.83196,-30.87113 8.56524,-19.9872056 10.05918,-20.6062716 24.80206,-22.2265206 5.14627,0.61897 16.64692,4.7527896 9.61743,1.65545 14.59655,7.2311596 12.17349,15.6074596 12.81091,12.1205596 3.73747,8.47161 1.13311,9.291153 0.88391,11.668 -0.93813,8.948023 -6.71289,-1.273921 -10.09777,-0.839409 4.25664,0.21604 -3.00229,-18.870917 -19.45519,-9.775041 -9.41524,10.238022 2.80016,14.211198 4.34978,20.730659 z"
     fill="#000000"
     id="path2"
     sodipodi:nodetypes="cccccccccccscccccccccccscccccccccccccccccccccccccccsccc" />
  <path
     d="m 183.82735,76.771119 c -3.073,0.253088 -6.146,0.759358 -9.219,1.518715 -2.94,0.632813 -5.946,1.265627 -9.019,1.89844 -8.017,1.771991 -15.967,3.480568 -23.85,5.125921 -7.883,1.518715 -15.9,2.657798 -24.05,3.417249 -2.138,0.253088 -4.41,0.442951 -6.815,0.569495 -2.271,0.126544 -4.609,0.06332 -7.014,-0.189863 -2.272,-0.253088 -4.476,-0.759358 -6.614,-1.518715 -2.138,-0.632813 -4.075,-1.645353 -5.812,-3.037617 -1.47,-1.138989 -2.606,-2.467935 -3.407,-3.986744 -0.936,-1.518715 -1.47,-3.100842 -1.604,-4.746195 -0.267,-1.645259 -0.133,-3.227386 0.401,-4.746101 0.535,-1.645353 1.537,-3.100842 3.006,-4.366469 0.936,-0.885996 2.405,-1.582034 4.41,-2.088304 2.137,-0.632813 4.476,-1.075764 7.014,-1.328945 2.539,-0.253088 5.078,-0.316407 7.616,-0.189863 2.539,0.126544 4.743,0.569588 6.614,1.328946 1.871,0.759357 3.14,1.835215 3.808,3.227386 0.802,1.265627 0.735,2.910979 -0.2,4.935964 -0.802,1.518808 -2.005,2.594573 -3.608,3.227386 -1.603,0.632907 -3.407,1.075858 -5.411,1.328946 -2.005,0.126544 -4.076,0.126544 -6.213,0 -2.138,-0.253088 -4.009,-0.50627 -5.612,-0.759357 0.534,0.506269 1.603,0.94922 3.207,1.328945 1.603,0.253088 3.273,0.442951 5.01,0.569495 1.871,0.126544 3.541,0.189863 5.011,0.189863 1.603,0 2.605,0 3.006,0 6.547,-0.50627 13.027,-1.392171 19.441,-2.657892 6.547,-1.265627 13.027,-2.594479 19.44,-3.986744 4.677,-1.012539 9.286,-2.024984 13.829,-3.037523 4.676,-1.139083 9.353,-1.961759 14.029,-2.468029 2.005,-0.126544 3.675,0.316407 5.011,1.328946 1.336,1.012539 2.204,2.214847 2.605,3.607112 0.401,1.265627 0.201,2.467935 -0.601,3.607018 -0.668,1.139083 -2.138,1.771896 -4.409,1.898534 z"
     fill="#000000"
     id="path4"
     style="stroke-width:0.969252" />
  <path
     d="m 359.13009,62.102751 c -6.814,0.1347 -13.762,0.3368 -20.843,0.6062 -5.10247,3.81097 -15.16116,8.65847 -21.97516,6.90707 -0.534,0 -4.74527,1.27925 -1.88579,-8.60501 -0.802,2.2902 -0.59005,3.38194 -2.19405,5.53754 -1.469,2.0208 -3.14,3.7722 -5.01,5.2541 -1.871,1.482 -3.942,2.5597 -6.213,3.2333 -2.138,0.6737 -4.276,0.741 -6.414,0.2021 -2.004,-0.5389 -3.474,-1.5493 -4.409,-3.0312 -1.069,-1.4819 -1.67,-3.166 -1.804,-5.0521 -0.133,-1.8861 0.134,-3.7722 0.802,-5.6583 0.535,-1.8861 1.336,-3.5701 2.405,-5.052 1.737,-2.1556 3.942,-3.7723 6.614,-4.85 2.672,-1.0778 5.344,-1.2125 8.017,-0.4042 0.267,-1.8861 1.336,-1.67126 3.206,-2.74906 1.871,-1.0778 3.875,-2.63984 6.013,-1.29254 2.004,1.2125 1.03131,3.28666 3.30231,7.91932 -1.27127,4.21517 0.35236,16.429149 6.56763,7.51457 1.45415,-2.085692 5.57558,-9.12997 7.98058,-9.12997 2.539,-0.1347 8.33748,-2.46442 10.60848,-2.46442 2.673,0 5.545,-0.1347 8.618,-0.4041 3.074,-0.4042 4.18226,0.36348 8.418,0.6062 1.47,0.5389 3.60316,2.26297 4.13716,3.47547 0.668,1.2125 -0.26216,1.57663 -0.52916,2.78913 -0.134,1.2125 -0.668,2.2902 -1.604,3.2333 -0.935,0.943 -2.204,1.4146 -3.808,1.4146 z m -62.7529,2.34421 c 1.81495,3.83775 4.0309,4.20123 5.79848,2.2217 l 1.41395,-5.77786 c 2.84369,-0.86166 -5.19264,-2.78718 -6.57501,-0.40345 -0.535,0.2694 -2.9155,2.15485 -0.63742,3.95961 z"
     fill="#000000"
     id="path6"
     sodipodi:nodetypes="cccccccccccccccccscsccccccccccc" />
  <path
     d="m 350.72819,77.205666 c -3.073,0.253088 -6.146,0.759358 -9.219,1.518715 -2.94,0.632813 -5.946,1.265627 -9.019,1.89844 -8.017,1.771991 -15.967,3.480568 -23.85,5.125921 -7.883,1.518715 -15.9,2.657798 -24.05,3.417249 -2.138,0.253088 -4.41,0.442951 -6.815,0.569495 -2.271,0.126544 -4.609,0.06332 -7.014,-0.189863 -2.272,-0.253088 -4.476,-0.759358 -6.614,-1.518715 -2.138,-0.632813 -4.075,-1.645353 -5.812,-3.037617 -1.47,-1.138989 -2.606,-2.467935 -3.407,-3.986744 -0.936,-1.518715 -1.47,-3.100842 -1.604,-4.746195 -0.267,-1.645259 -0.133,-3.227386 0.401,-4.746101 0.535,-1.645353 1.537,-3.100842 3.006,-4.366469 0.936,-0.885996 2.405,-1.582034 4.41,-2.088304 2.137,-0.632813 4.476,-1.075764 7.014,-1.328945 2.539,-0.253088 5.078,-0.316407 7.616,-0.189863 2.539,0.126544 4.743,0.569588 6.614,1.328946 1.871,0.759357 3.14,1.835215 3.808,3.227386 0.802,1.265627 0.735,2.910979 -0.2,4.935964 -0.802,1.518808 -2.005,2.594573 -3.608,3.227386 -1.603,0.632907 -3.407,1.075858 -5.411,1.328946 -2.005,0.126544 -4.076,0.126544 -6.213,0 -2.138,-0.253088 -4.009,-0.50627 -5.612,-0.759357 0.534,0.506269 1.603,0.94922 3.207,1.328945 1.603,0.253088 3.273,0.442951 5.01,0.569495 1.871,0.126544 3.541,0.189863 5.011,0.189863 1.603,0 2.605,0 3.006,0 6.547,-0.50627 13.027,-1.392171 19.441,-2.657892 6.547,-1.265627 13.027,-2.594479 19.44,-3.986744 4.677,-1.012539 9.286,-2.024984 13.829,-3.037523 4.676,-1.139083 9.353,-1.961759 14.029,-2.468029 2.005,-0.126544 3.675,0.316407 5.011,1.328946 1.336,1.012539 2.204,2.214847 2.605,3.607112 0.401,1.265627 0.201,2.467935 -0.601,3.607018 -0.668,1.139083 -2.138,1.771896 -4.409,1.898534 z"
     fill="#000000"
     id="path4-1"
     style="stroke-width:0.969252" />
  <path
     style="fill:#000000"
     d="m 74.939348,13.57392 c -9.644082,0.266504 -11.914575,1.41532 -12.72555,7.06975 -1.871792,-0.839531 -10.301025,13.003877 -11.59439,13.85671 -2.434843,1.082419 8.258215,-8.222193 7.069751,-7.35254 -0.606537,0.454902 -0.655668,0.938457 -1.13116,1.413949 -1.237442,0.736704 -2.141896,1.972538 -3.11069,3.11069 -0.153365,0.255608 -1.235098,3.437801 -1.41395,3.67627 -0.665105,0.228484 0.288911,-2.048687 0,-1.41395 -0.70329,0.1953 -0.41634,0.456678 -0.56558,0.84837 -0.11692,0.175379 -0.416537,0.133747 -0.56558,0.28279 -0.956324,0.956324 -1.36045,2.594027 -2.26232,3.67627 -0.256026,0.307231 -1.186309,2.499085 -1.41395,2.8279 -2.841639,4.382662 -4.587165,6.64189 -6.78696,11.02881 -0.05962,0.119235 -0.188527,0.188527 -0.28279,0.28279 -0.188527,0.28279 -0.439355,0.532807 -0.56558,0.84837 -0.07002,0.175042 0.08431,0.396956 0,0.56558 -0.04216,0.08431 -1.064506,3.04404 -1.13116,3.11069 -1.206321,1.017222 -0.802514,1.026228 -3.67627,7.06975 -0.621622,-1.059883 -4.666506,15.037529 -3.39348,12.725549 17.521822,15.851285 29.100022,4.43073 5.09022,3.67627 9.193487,2.122096 0.863355,-0.765596 9.61486,5.09022 11.340143,3.075317 10.664178,0.0075 14.705079,0 4.437711,-0.0082 40.119102,5.229913 39.307812,-0.28279 -0.312912,-2.126197 -12.024683,-9.2667 -24.602732,-7.35254 -5.782318,0.879968 -30.541319,-1.497443 -28.561789,-15.27066"
     id="path414"
     sodipodi:nodetypes="cccccccccsscccsscccccsssc" />
  <path
     style="fill:#000000"
     d="m 67.586808,54.578469 5.37301,-1.97953"
     id="path420" />
  <path
     style="fill:#000000"
     d="m 66.172858,15.55345 c -0.188526,0.56558 -0.377053,1.13116 -0.56558,1.69674"
     id="path422" />
</svg>
