<?xml version="1.0" encoding="utf-8"?>
<svg viewBox="0 0 190 47" xmlns="http://www.w3.org/2000/svg">
  <g id="surface1">
    <rect x="0" y="0" width="190" height="47" style="fill:rgb(100%,100%,100%);fill-opacity:1;stroke:none;"/>
    <path style=" stroke:none;fill-rule:nonzero;fill:rgb(66.27451%,80.392157%,83.921569%);fill-opacity:1;" d="M 10.171875 6.285156 L 10.472656 6.585938 Z M 10.171875 6.285156 "/>
    <path style=" stroke:none;fill-rule:nonzero;fill:rgb(27.058824%,81.568627%,80%);fill-opacity:1;" d="M 7.480469 17.0625 C 10.90625 15.335938 7.042969 9.972656 10.484375 8.136719 C 12.566406 7.027344 16.535156 7.785156 18.851562 7.785156 L 38.898438 7.785156 C 41.324219 7.785156 45.699219 6.945312 47.839844 8.179688 C 51.035156 10.015625 47.929688 14.863281 50.566406 17.0625 C 50.566406 14.359375 51.578125 9.25 49.335938 7.304688 C 47.265625 5.507812 43.246094 6.285156 40.691406 6.285156 L 17.953125 6.285156 C 15.351562 6.285156 10.832031 5.421875 8.746094 7.308594 C 6.511719 9.332031 7.480469 14.34375 7.480469 17.0625 Z M 7.480469 17.0625 "/>
    <path style=" stroke:none;fill-rule:nonzero;fill:rgb(66.27451%,80.392157%,83.921569%);fill-opacity:1;" d="M 47.875 6.285156 L 48.171875 6.585938 L 47.875 6.285156 M 9.277344 6.585938 L 9.574219 6.886719 L 9.277344 6.585938 M 48.472656 6.585938 L 48.773438 6.886719 L 48.472656 6.585938 M 49.070312 6.886719 L 49.371094 7.183594 L 49.070312 6.886719 M 49.371094 7.183594 L 49.667969 7.484375 L 49.371094 7.183594 M 49.667969 7.484375 L 49.96875 7.785156 L 49.667969 7.484375 M 10.472656 7.785156 L 10.773438 8.082031 L 10.472656 7.785156 M 47.476562 7.882812 L 47.675781 7.984375 L 47.476562 7.882812 M 49.96875 7.785156 L 50.269531 8.082031 L 49.96875 7.785156 M 7.78125 8.082031 L 8.078125 8.382812 L 7.78125 8.082031 M 9.875 8.082031 L 10.171875 8.382812 L 9.875 8.082031 M 48.472656 8.382812 L 48.773438 8.679688 L 48.472656 8.382812 M 50.269531 8.382812 L 50.566406 8.679688 L 50.269531 8.382812 M 7.578125 8.882812 L 7.679688 9.082031 L 7.578125 8.882812 M 9.277344 8.679688 L 9.574219 8.980469 L 9.277344 8.679688 M 8.976562 9.28125 L 9.277344 9.578125 L 8.976562 9.28125 M 50.566406 9.28125 L 50.566406 17.363281 L 50.867188 17.363281 L 50.566406 9.28125 M 49.070312 9.878906 L 49.070312 16.164062 L 49.371094 16.164062 Z M 49.070312 9.878906 "/>
    <path style=" stroke:none;fill-rule:nonzero;fill:rgb(27.058824%,81.568627%,80%);fill-opacity:1;" d="M 13.765625 29.636719 C 13.277344 26.5 7.496094 25.085938 7.496094 22.152344 C 7.496094 21.21875 8.664062 20.515625 9.277344 19.972656 C 10.902344 18.53125 13.417969 16.917969 13.765625 14.667969 C 11.136719 15.074219 8.804688 18.132812 6.882812 19.84375 C 6.253906 20.402344 5.148438 21.210938 5.148438 22.152344 C 5.148438 23.09375 6.253906 23.902344 6.882812 24.460938 C 8.804688 26.171875 11.136719 29.230469 13.765625 29.636719 M 44.285156 14.96875 L 49.070312 20.046875 L 50.847656 22.152344 L 49.070312 24.253906 L 44.285156 29.335938 C 46.773438 29.886719 49.441406 26.164062 51.164062 24.632812 C 51.871094 24.007812 53.070312 23.234375 53.070312 22.164062 C 53.070312 21.160156 51.816406 20.359375 51.164062 19.75 C 49.488281 18.179688 46.75 14.597656 44.285156 14.96875 Z M 44.285156 14.96875 "/>
    <path style=" stroke:none;fill-rule:nonzero;fill:rgb(66.27451%,80.392157%,83.921569%);fill-opacity:1;" d="M 45.480469 14.667969 L 45.78125 14.96875 L 45.480469 14.667969 M 45.78125 14.96875 L 46.078125 15.265625 L 45.78125 14.96875 M 71.511719 14.96875 L 71.511719 15.265625 L 72.410156 15.265625 Z M 71.511719 14.96875 "/>
    <path style=" stroke:none;fill-rule:nonzero;fill:rgb(19.215686%,37.254902%,56.470588%);fill-opacity:1;" d="M 81.085938 23.648438 L 74.503906 23.648438 L 74.503906 25.746094 L 78.691406 25.746094 C 78.691406 27.179688 79.203125 29.84375 78.214844 31.003906 C 77.371094 31.988281 75.6875 32.023438 74.503906 32.03125 C 70.398438 32.058594 67.097656 29.011719 66.902344 24.847656 C 66.695312 20.433594 70.519531 17.046875 74.804688 17.390625 C 76.273438 17.507812 77.316406 18.574219 78.679688 18.789062 C 79.542969 18.925781 80.394531 17.984375 80.097656 17.128906 C 79.3125 14.882812 74.246094 14.808594 72.410156 15.097656 C 66.957031 15.957031 64.101562 20.445312 64.34375 25.746094 C 64.621094 31.894531 70.722656 35.113281 76.300781 34.199219 C 77.632812 33.984375 79.640625 33.804688 80.605469 32.734375 C 82.050781 31.136719 81.085938 25.738281 81.085938 23.648438 Z M 81.085938 23.648438 "/>
    <path style=" stroke:none;fill-rule:nonzero;fill:rgb(66.27451%,80.392157%,83.921569%);fill-opacity:1;" d="M 75.699219 14.96875 L 75.699219 15.265625 L 76.597656 15.265625 L 75.699219 14.96875 M 124.171875 14.96875 L 124.171875 15.265625 L 132.253906 15.265625 L 124.171875 14.96875 M 149.308594 14.96875 L 149.605469 15.265625 Z M 149.308594 14.96875 "/>
    <path style=" stroke:none;fill-rule:nonzero;fill:rgb(8.235294%,18.431373%,27.058824%);fill-opacity:1;" d="M 143.563 29.637 C 144.887 26.332 146.262 23.039 147.641 19.758 C 148.09 18.68 148.875 15.285 150.238 15.109 C 151.672 14.922 152.785 19.027 153.238 20.059 C 155.078 24.223 156.73 32.23 161.277 33.828 C 159.461 35.066 152.918 35.066 151.102 33.828 C 153.359 33.035 154.023 30.605 151.586 29.047 C 150.477 28.34 147.27 28.504 146.027 28.836 C 143.844 29.418 142.809 33.305 145.715 33.527 C 144.801 34.945 140.949 34.945 140.031 33.527 C 142.328 33.273 142.789 31.559 143.563 29.637 Z M 148.109 21.555 L 145.715 27.543 L 151.102 27.543 L 148.707 21.555 Z"/>
    <path style=" stroke:none;fill-rule:nonzero;fill:rgb(66.27451%,80.392157%,83.921569%);fill-opacity:1;" d="M 151.101562 14.96875 L 151.402344 15.265625 L 151.101562 14.96875 M 162.472656 14.96875 L 162.472656 15.265625 L 174.140625 15.265625 C 171.066406 13.976562 165.816406 14.96875 162.472656 14.96875 M 13.765625 15.265625 L 14.0625 15.566406 L 13.765625 15.265625 M 46.078125 15.265625 L 46.378906 15.566406 L 46.078125 15.265625 M 70.613281 15.265625 L 70.914062 15.566406 L 70.613281 15.265625 M 77.394531 15.367188 L 77.59375 15.46875 L 77.394531 15.367188 M 83.179688 15.265625 L 83.179688 15.566406 L 86.472656 15.566406 L 83.179688 15.265625 M 96.347656 15.265625 L 96.347656 15.566406 C 97.550781 15.566406 99.277344 15.210938 99.039062 16.164062 L 99.339844 16.164062 L 99.636719 15.265625 L 96.347656 15.265625 M 101.433594 15.265625 L 101.433594 15.566406 L 105.324219 16.164062 C 105.550781 14.792969 102.367188 15.265625 101.433594 15.265625 M 116.992188 15.265625 L 116.992188 15.566406 L 120.882812 15.566406 L 116.992188 15.265625 M 123.574219 15.265625 L 123.875 15.566406 Z M 123.574219 15.265625 "/>
    <path style=" stroke:none;fill-rule:nonzero;fill:rgb(8.235294%,18.431373%,27.058824%);fill-opacity:1;" d="M 123.875 15.265625 C 124.304688 15.96875 125.167969 16.339844 125.488281 17.105469 C 126.699219 19.996094 125.667969 25.304688 125.667969 28.441406 C 125.667969 30.410156 126.191406 32.855469 123.875 33.527344 C 124.726562 34.847656 126.644531 34.425781 128.0625 34.425781 L 139.433594 34.425781 L 139.132812 28.738281 L 138.835938 28.738281 C 137.898438 31.675781 136.859375 33.507812 133.449219 33.527344 C 132.464844 33.53125 131.332031 33.546875 130.765625 32.585938 C 130.121094 31.5 130.457031 29.652344 130.457031 28.441406 C 130.457031 24.96875 128.929688 17.515625 132.550781 15.867188 C 130.644531 14.421875 126.222656 15.265625 123.875 15.265625 Z M 123.875 15.265625 "/>
    <path style=" stroke:none;fill-rule:nonzero;fill:rgb(19.215686%,37.254902%,56.470588%);fill-opacity:1;" d="M 132.253906 15.265625 L 132.550781 15.566406 L 132.253906 15.265625 M 149.308594 15.265625 L 149.605469 15.566406 L 149.308594 15.265625 M 151.101562 15.265625 L 151.402344 15.566406 Z M 151.101562 15.265625 "/>
    <path style=" stroke:none;fill-rule:nonzero;fill:rgb(66.27451%,80.392157%,83.921569%);fill-opacity:1;" d="M 161.972656 15.46875 L 162.074219 15.667969 Z M 161.972656 15.46875 "/>
    <path style=" stroke:none;fill-rule:nonzero;fill:rgb(8.235294%,18.431373%,27.058824%);fill-opacity:1;" d="M 177.434 16.164 C 182.293 18.633 178.551 23.762 174.441 23.949 L 174.441 24.547 C 178.309 24.578 183.504 28.094 179.668 32.191 C 176.797 35.254 170.461 34.426 166.66 34.426 C 165.195 34.426 163.059 34.895 162.172 33.527 C 163.281 33.211 163.98 32.633 164.199 31.434 C 164.848 27.891 165.121 21.125 164.137 17.668 C 163.824 16.566 162.734 16.18 162.172 15.266 C 166.68 15.266 173.305 14.07 177.434 16.164 Z M 169.055 23.949 C 172.234 23.922 176.234 21.316 173.621 17.703 C 172.914 16.723 170.281 15.652 169.363 16.906 C 168.324 18.324 169.055 22.227 169.055 23.949 Z M 169.055 25.148 C 169.055 26.953 168.258 31.293 169.406 32.75 C 170.508 34.137 173.699 32.707 174.543 31.668 C 177.977 27.449 172.379 25.148 169.055 25.148 Z"/>
    <path style=" stroke:none;fill-rule:nonzero;fill:rgb(19.215686%,37.254902%,56.470588%);fill-opacity:1;" d="M 174.441406 15.265625 L 174.441406 15.566406 L 175.339844 15.566406 Z M 174.441406 15.265625 "/>
    <path style=" stroke:none;fill-rule:nonzero;fill:rgb(66.27451%,80.392157%,83.921569%);fill-opacity:1;" d="M 175.539062 15.367188 L 175.738281 15.46875 L 175.539062 15.367188 M 44.285156 15.566406 L 44.582031 15.867188 L 44.285156 15.566406 M 69.714844 15.566406 L 70.015625 15.867188 L 69.714844 15.566406 M 78.09375 15.566406 L 78.394531 15.867188 Z M 78.09375 15.566406 "/>
    <path style=" stroke:none;fill-rule:nonzero;fill:rgb(19.215686%,37.254902%,56.470588%);fill-opacity:1;" d="M 83.179688 15.566406 L 89.851562 26.042969 L 90.0625 33.828125 L 92.457031 33.828125 L 92.667969 26.34375 L 99.339844 15.566406 C 95.191406 15.566406 93.214844 19.847656 91.558594 23.351562 L 90.960938 23.351562 C 89.570312 19.546875 87.402344 15.566406 83.179688 15.566406 M 101.433594 15.566406 L 101.433594 33.828125 L 103.828125 33.828125 L 103.828125 18.859375 L 104.125 18.859375 L 110.109375 33.828125 C 112.476562 33.75 112.855469 31.890625 113.640625 29.9375 C 115.132812 26.234375 116.675781 22.550781 118.1875 18.859375 L 118.488281 18.859375 L 118.488281 33.828125 L 120.882812 33.828125 L 120.882812 15.566406 L 117.1875 15.875 L 115.257812 19.757812 L 111.308594 29.335938 L 107.113281 19.757812 L 105.132812 15.875 L 101.433594 15.566406 M 123.574219 15.566406 L 124.171875 16.164062 Z M 123.574219 15.566406 "/>
    <path style=" stroke:none;fill-rule:nonzero;fill:rgb(66.27451%,80.392157%,83.921569%);fill-opacity:1;" d="M 149.007812 15.566406 L 149.308594 15.867188 L 149.007812 15.566406 M 151.402344 15.566406 L 151.699219 15.867188 Z M 151.402344 15.566406 "/>
    <path style=" stroke:none;fill-rule:nonzero;fill:rgb(19.215686%,37.254902%,56.470588%);fill-opacity:1;" d="M 176.234375 15.566406 L 176.535156 15.867188 Z M 176.234375 15.566406 "/>
    <path style=" stroke:none;fill-rule:nonzero;fill:rgb(66.27451%,80.392157%,83.921569%);fill-opacity:1;" d="M 176.535156 15.566406 L 176.835938 15.867188 L 176.535156 15.566406 M 11.070312 15.867188 L 11.371094 16.164062 L 11.070312 15.867188 M 44.582031 15.867188 L 44.882812 16.164062 L 44.582031 15.867188 M 69.117188 15.867188 L 69.417969 16.164062 L 69.117188 15.867188 M 78.691406 15.867188 L 78.992188 16.164062 L 78.691406 15.867188 M 86.472656 15.867188 L 86.773438 16.164062 L 86.472656 15.867188 M 116.691406 15.867188 L 116.992188 16.164062 L 116.691406 15.867188 M 123.574219 15.867188 L 123.875 16.164062 Z M 123.574219 15.867188 "/>
    <path style=" stroke:none;fill-rule:nonzero;fill:rgb(19.215686%,37.254902%,56.470588%);fill-opacity:1;" d="M 132.253906 15.867188 L 132.550781 16.164062 L 132.253906 15.867188 M 149.007812 15.867188 L 149.308594 16.164062 L 149.007812 15.867188 M 151.5 16.066406 L 151.601562 16.265625 L 151.5 16.066406 M 162.171875 15.867188 L 162.472656 16.164062 L 162.171875 15.867188 M 177.132812 15.867188 L 177.433594 16.164062 Z M 177.132812 15.867188 "/>
    <path style=" stroke:none;fill-rule:nonzero;fill:rgb(66.27451%,80.392157%,83.921569%);fill-opacity:1;" d="M 177.433594 15.867188 L 177.730469 16.164062 L 177.433594 15.867188 M 10.773438 16.164062 L 11.070312 16.464844 L 10.773438 16.164062 M 44.882812 16.164062 L 45.179688 16.464844 L 44.882812 16.164062 M 49.371094 16.164062 L 49.667969 16.464844 L 49.371094 16.164062 M 68.519531 16.164062 L 68.820312 16.464844 L 68.519531 16.164062 M 79.292969 16.164062 L 79.589844 16.464844 L 79.292969 16.164062 M 83.480469 16.164062 L 83.78125 16.464844 L 83.480469 16.164062 M 86.773438 16.164062 L 87.070312 16.464844 L 86.773438 16.164062 M 95.746094 16.164062 L 96.046875 16.464844 L 95.746094 16.164062 M 124.773438 16.164062 L 125.070312 16.464844 Z M 124.773438 16.164062 "/>
    <path style=" stroke:none;fill-rule:nonzero;fill:rgb(19.215686%,37.254902%,56.470588%);fill-opacity:1;" d="M 125.070312 16.164062 L 125.371094 16.464844 Z M 125.070312 16.164062 "/>
    <path style=" stroke:none;fill-rule:nonzero;fill:rgb(66.27451%,80.392157%,83.921569%);fill-opacity:1;" d="M 131.253906 16.265625 L 131.453125 16.363281 L 131.253906 16.265625 M 163.070312 16.164062 L 163.371094 16.464844 Z M 163.070312 16.164062 "/>
    <path style=" stroke:none;fill-rule:nonzero;fill:rgb(19.215686%,37.254902%,56.470588%);fill-opacity:1;" d="M 163.371094 16.164062 L 163.667969 16.464844 L 163.371094 16.164062 M 169.355469 16.164062 L 169.652344 16.464844 Z M 169.355469 16.164062 "/>
    <path style=" stroke:none;fill-rule:nonzero;fill:rgb(66.27451%,80.392157%,83.921569%);fill-opacity:1;" d="M 169.652344 16.164062 L 169.953125 16.464844 Z M 169.652344 16.164062 "/>
    <path style=" stroke:none;fill-rule:nonzero;fill:rgb(66.27451%,80.392157%,83.921569%);fill-opacity:1;" d="M 170.253906 16.164062 L 170.253906 16.464844 L 171.449219 16.464844 Z M 170.253906 16.164062 "/>
    <path style=" stroke:none;fill-rule:nonzero;fill:rgb(19.215686%,37.254902%,56.470588%);fill-opacity:1;" d="M 171.449219 16.164062 L 171.746094 16.464844 L 171.449219 16.164062 M 177.730469 16.164062 L 178.03125 16.464844 Z M 177.730469 16.164062 "/>
    <path style=" stroke:none;fill-rule:nonzero;fill:rgb(66.27451%,80.392157%,83.921569%);fill-opacity:1;" d="M 10.472656 16.464844 L 10.773438 16.765625 L 10.472656 16.464844 M 45.179688 16.464844 L 45.480469 16.765625 L 45.179688 16.464844 M 98.738281 16.464844 L 99.039062 16.765625 L 98.738281 16.464844 M 105.621094 16.464844 L 105.921875 16.765625 L 105.621094 16.464844 M 116.394531 16.464844 L 116.691406 16.765625 Z M 116.394531 16.464844 "/>
    <path style=" stroke:none;fill-rule:nonzero;fill:rgb(19.215686%,37.254902%,56.470588%);fill-opacity:1;" d="M 125.371094 16.464844 L 125.667969 16.765625 Z M 125.371094 16.464844 "/>
    <path style=" stroke:none;fill-rule:nonzero;fill:rgb(66.27451%,80.392157%,83.921569%);fill-opacity:1;" d="M 130.757812 16.464844 L 131.054688 16.765625 L 130.757812 16.464844 M 148.707031 16.464844 L 149.007812 16.765625 Z M 148.707031 16.464844 "/>
    <path style=" stroke:none;fill-rule:nonzero;fill:rgb(19.215686%,37.254902%,56.470588%);fill-opacity:1;" d="M 151.800781 16.664062 L 151.898438 16.863281 L 151.800781 16.664062 M 163.667969 16.464844 L 163.96875 16.765625 Z M 163.667969 16.464844 "/>
    <path style=" stroke:none;fill-rule:nonzero;fill:rgb(66.27451%,80.392157%,83.921569%);fill-opacity:1;" d="M 169.054688 16.464844 L 169.355469 16.765625 L 169.054688 16.464844 M 172.046875 16.464844 L 172.347656 16.765625 Z M 172.046875 16.464844 "/>
    <path style=" stroke:none;fill-rule:nonzero;fill:rgb(19.215686%,37.254902%,56.470588%);fill-opacity:1;" d="M 172.347656 16.464844 L 172.644531 16.765625 L 172.347656 16.464844 M 178.03125 16.464844 L 178.332031 16.765625 Z M 178.03125 16.464844 "/>
    <path style=" stroke:none;fill-rule:nonzero;fill:rgb(66.27451%,80.392157%,83.921569%);fill-opacity:1;" d="M 178.332031 16.464844 L 178.628906 16.765625 L 178.332031 16.464844 M 17.054688 16.765625 L 17.054688 17.0625 L 23.339844 17.0625 L 17.054688 16.765625 M 45.480469 16.765625 L 45.78125 17.0625 L 45.480469 16.765625 M 47.875 16.765625 L 48.171875 17.0625 L 47.875 16.765625 M 80.1875 16.765625 L 80.488281 17.0625 L 80.1875 16.765625 M 87.070312 16.765625 L 87.371094 17.0625 L 87.070312 16.765625 M 95.449219 16.765625 L 95.746094 17.0625 L 95.449219 16.765625 M 98.441406 16.765625 L 98.738281 17.0625 L 98.441406 16.765625 M 125.371094 16.765625 L 125.667969 17.0625 Z M 125.371094 16.765625 "/>
    <path style=" stroke:none;fill-rule:nonzero;fill:rgb(19.215686%,37.254902%,56.470588%);fill-opacity:1;" d="M 130.457031 16.765625 L 130.457031 32.929688 L 130.757812 32.929688 L 130.757812 22.152344 L 130.457031 16.765625 M 148.707031 16.765625 L 149.007812 17.0625 L 148.707031 16.765625 M 172.945312 16.765625 L 173.242188 17.0625 Z M 172.945312 16.765625 "/>
    <path style=" stroke:none;fill-rule:nonzero;fill:rgb(66.27451%,80.392157%,83.921569%);fill-opacity:1;" d="M 178.628906 16.765625 L 178.929688 17.0625 L 178.628906 16.765625 M 7.480469 17.0625 L 7.78125 17.363281 Z M 7.480469 17.0625 "/>
    <path style=" stroke:none;fill-rule:nonzero;fill:rgb(27.058824%,81.568627%,80%);fill-opacity:1;" d="M 16.757812 17.0625 L 16.757812 18.261719 L 23.636719 18.261719 L 23.636719 17.0625 Z M 16.757812 17.0625 "/>
    <path style=" stroke:none;fill-rule:nonzero;fill:rgb(66.27451%,80.392157%,83.921569%);fill-opacity:1;" d="M 48.171875 17.0625 L 48.472656 17.363281 L 48.171875 17.0625 M 67.324219 17.0625 L 67.621094 17.363281 L 67.324219 17.0625 M 80.585938 17.261719 L 80.6875 17.460938 L 80.585938 17.261719 M 84.078125 17.0625 L 84.378906 17.363281 L 84.078125 17.0625 M 95.148438 17.0625 L 95.449219 17.363281 L 95.148438 17.0625 M 105.921875 17.0625 L 106.21875 17.363281 L 105.921875 17.0625 M 116.195312 17.261719 L 116.292969 17.460938 L 116.195312 17.261719 M 148.410156 17.0625 L 148.707031 17.363281 L 148.410156 17.0625 M 152 17.0625 L 152.300781 17.363281 Z M 152 17.0625 "/>
    <path style=" stroke:none;fill-rule:nonzero;fill:rgb(19.215686%,37.254902%,56.470588%);fill-opacity:1;" d="M 163.96875 17.0625 L 163.96875 32.332031 L 164.269531 32.332031 C 164.269531 28.046875 165.617188 20.992188 163.96875 17.0625 M 168.757812 17.0625 L 168.757812 23.949219 L 169.054688 23.949219 Z M 168.757812 17.0625 "/>
    <path style=" stroke:none;fill-rule:nonzero;fill:rgb(66.27451%,80.392157%,83.921569%);fill-opacity:1;" d="M 173.242188 17.0625 L 173.542969 17.363281 L 173.242188 17.0625 M 178.929688 17.0625 L 179.226562 17.363281 L 178.929688 17.0625 M 11.667969 17.363281 L 11.96875 17.664062 L 11.667969 17.363281 M 16.554688 17.5625 L 16.65625 17.761719 L 16.554688 17.5625 M 23.738281 17.5625 L 23.835938 17.761719 L 23.738281 17.5625 M 48.472656 17.363281 L 48.773438 17.664062 L 48.472656 17.363281 M 67.023438 17.363281 L 67.324219 17.664062 L 67.023438 17.363281 M 72.308594 17.460938 L 72.507812 17.5625 L 72.308594 17.460938 M 75.601562 17.460938 L 75.800781 17.5625 L 75.601562 17.460938 M 98.140625 17.363281 L 98.441406 17.664062 Z M 98.140625 17.363281 "/>
    <path style=" stroke:none;fill-rule:nonzero;fill:rgb(19.215686%,37.254902%,56.470588%);fill-opacity:1;" d="M 148.410156 17.363281 L 148.707031 17.664062 L 148.410156 17.363281 M 152 17.363281 L 152.300781 17.664062 L 152 17.363281 M 173.542969 17.363281 L 173.84375 17.664062 Z M 173.542969 17.363281 "/>
    <path style=" stroke:none;fill-rule:nonzero;fill:rgb(66.27451%,80.392157%,83.921569%);fill-opacity:1;" d="M 179.226562 17.363281 L 179.527344 17.664062 L 179.226562 17.363281 M 11.371094 17.664062 L 11.667969 17.960938 L 11.371094 17.664062 M 48.773438 17.664062 L 49.070312 17.960938 L 48.773438 17.664062 M 66.722656 17.664062 L 67.023438 17.960938 L 66.722656 17.664062 M 71.113281 17.761719 L 71.3125 17.863281 L 71.113281 17.761719 M 76.597656 17.664062 L 76.898438 17.960938 L 76.597656 17.664062 M 80.1875 17.664062 L 80.488281 17.960938 L 80.1875 17.664062 M 87.667969 17.664062 L 87.96875 17.960938 L 87.667969 17.664062 M 94.851562 17.664062 L 95.148438 17.960938 L 94.851562 17.664062 M 97.84375 17.664062 L 98.140625 17.960938 L 97.84375 17.664062 M 106.320312 17.863281 L 106.421875 18.0625 L 106.320312 17.863281 M 152.300781 17.664062 L 152.597656 17.960938 Z M 152.300781 17.664062 "/>
    <path style=" stroke:none;fill-rule:nonzero;fill:rgb(19.215686%,37.254902%,56.470588%);fill-opacity:1;" d="M 173.84375 17.664062 L 174.140625 17.960938 L 173.84375 17.664062 M 179.226562 17.664062 L 179.527344 17.960938 Z M 179.226562 17.664062 "/>
    <path style=" stroke:none;fill-rule:nonzero;fill:rgb(66.27451%,80.392157%,83.921569%);fill-opacity:1;" d="M 11.070312 17.960938 L 11.371094 18.261719 L 11.070312 17.960938 M 49.070312 17.960938 L 49.371094 18.261719 L 49.070312 17.960938 M 66.425781 17.960938 L 66.722656 18.261719 L 66.425781 17.960938 M 77.195312 17.960938 L 77.496094 18.261719 L 77.195312 17.960938 M 79.890625 17.960938 L 80.1875 18.261719 L 79.890625 17.960938 M 84.675781 17.960938 L 84.976562 18.261719 L 84.675781 17.960938 M 94.550781 17.960938 L 94.851562 18.261719 L 94.550781 17.960938 M 115.796875 17.960938 L 116.09375 18.261719 L 115.796875 17.960938 M 148.109375 17.960938 L 148.410156 18.261719 Z M 148.109375 17.960938 "/>
    <path style=" stroke:none;fill-rule:nonzero;fill:rgb(19.215686%,37.254902%,56.470588%);fill-opacity:1;" d="M 152.300781 17.960938 L 152.597656 19.160156 L 152.898438 19.160156 Z M 152.300781 17.960938 "/>
    <path style=" stroke:none;fill-rule:nonzero;fill:rgb(66.27451%,80.392157%,83.921569%);fill-opacity:1;" d="M 173.84375 17.960938 L 174.140625 18.261719 L 173.84375 17.960938 M 179.527344 17.960938 L 179.828125 18.261719 L 179.527344 17.960938 M 17.054688 18.261719 L 17.054688 18.558594 L 23.339844 18.558594 L 17.054688 18.261719 M 47.277344 18.261719 L 47.574219 18.558594 L 47.277344 18.261719 M 70.015625 18.261719 L 70.316406 18.558594 L 70.015625 18.261719 M 77.796875 18.261719 L 78.09375 18.558594 L 77.796875 18.261719 M 87.96875 18.261719 L 88.269531 18.558594 L 87.96875 18.261719 M 97.542969 18.261719 L 97.84375 18.558594 Z M 97.542969 18.261719 "/>
    <path style=" stroke:none;fill-rule:nonzero;fill:rgb(19.215686%,37.254902%,56.470588%);fill-opacity:1;" d="M 148.109375 18.261719 L 148.410156 18.558594 Z M 148.109375 18.261719 "/>
    <path style=" stroke:none;fill-rule:nonzero;fill:rgb(66.27451%,80.392157%,83.921569%);fill-opacity:1;" d="M 152.597656 18.261719 L 152.898438 18.558594 Z M 152.597656 18.261719 "/>
    <path style=" stroke:none;fill-rule:nonzero;fill:rgb(19.215686%,37.254902%,56.470588%);fill-opacity:1;" d="M 179.527344 18.261719 L 179.527344 19.160156 L 179.828125 19.160156 Z M 179.527344 18.261719 "/>
    <path style=" stroke:none;fill-rule:nonzero;fill:rgb(66.27451%,80.392157%,83.921569%);fill-opacity:1;" d="M 8.078125 18.558594 L 8.378906 18.859375 L 8.078125 18.558594 M 47.574219 18.558594 L 47.875 18.859375 L 47.574219 18.558594 M 78.09375 18.558594 L 78.394531 18.859375 L 78.09375 18.558594 M 88.269531 18.558594 L 88.566406 18.859375 L 88.269531 18.558594 M 94.253906 18.558594 L 94.550781 18.859375 L 94.253906 18.558594 M 97.242188 18.558594 L 97.542969 18.859375 L 97.242188 18.558594 M 106.519531 18.558594 L 106.820312 18.859375 L 106.519531 18.558594 M 115.496094 18.558594 L 115.796875 18.859375 L 115.496094 18.558594 M 147.8125 18.558594 L 148.109375 18.859375 Z M 147.8125 18.558594 "/>
    <path style=" stroke:none;fill-rule:nonzero;fill:rgb(19.215686%,37.254902%,56.470588%);fill-opacity:1;" d="M 174.140625 18.558594 L 174.441406 18.859375 Z M 174.140625 18.558594 "/>
    <path style=" stroke:none;fill-rule:nonzero;fill:rgb(66.27451%,80.392157%,83.921569%);fill-opacity:1;" d="M 7.78125 18.859375 L 8.078125 19.160156 L 7.78125 18.859375 M 47.875 18.859375 L 48.171875 19.160156 L 47.875 18.859375 M 69.117188 18.859375 L 69.417969 19.160156 L 69.117188 18.859375 M 85.277344 18.859375 L 85.574219 19.160156 L 85.277344 18.859375 M 103.828125 18.859375 L 103.828125 33.828125 L 101.433594 33.828125 L 101.433594 34.128906 L 104.125 34.128906 L 104.125 23.351562 L 103.828125 18.859375 M 118.1875 18.859375 L 118.1875 34.128906 L 120.882812 34.128906 L 120.882812 33.828125 L 118.488281 33.828125 C 118.488281 29.621094 119.808594 22.71875 118.1875 18.859375 Z M 118.1875 18.859375 "/>
    <path style=" stroke:none;fill-rule:nonzero;fill:rgb(19.215686%,37.254902%,56.470588%);fill-opacity:1;" d="M 147.8125 18.859375 L 148.109375 19.160156 Z M 147.8125 18.859375 "/>
    <path style=" stroke:none;fill-rule:nonzero;fill:rgb(66.27451%,80.392157%,83.921569%);fill-opacity:1;" d="M 174.140625 18.859375 L 174.140625 19.757812 L 174.441406 19.757812 L 174.140625 18.859375 M 7.480469 19.160156 L 7.78125 19.457031 L 7.480469 19.160156 M 48.171875 19.160156 L 48.472656 19.457031 L 48.171875 19.160156 M 65.527344 19.160156 L 65.828125 19.457031 L 65.527344 19.160156 M 68.820312 19.160156 L 69.117188 19.457031 L 68.820312 19.160156 M 88.566406 19.160156 L 88.867188 19.457031 L 88.566406 19.160156 M 96.945312 19.160156 L 97.242188 19.457031 L 96.945312 19.160156 M 106.820312 19.160156 L 107.117188 19.457031 L 106.820312 19.160156 M 152.898438 19.160156 L 153.195312 19.457031 L 152.898438 19.160156 M 48.472656 19.457031 L 48.773438 19.757812 L 48.472656 19.457031 M 50.867188 19.457031 L 51.164062 19.757812 L 50.867188 19.457031 M 68.519531 19.457031 L 68.820312 19.757812 L 68.519531 19.457031 M 93.652344 19.457031 L 93.953125 19.757812 L 93.652344 19.457031 M 96.644531 19.457031 L 96.945312 19.757812 L 96.644531 19.457031 M 115.195312 19.457031 L 115.496094 19.757812 Z M 115.195312 19.457031 "/>
    <path style=" stroke:none;fill-rule:nonzero;fill:rgb(19.215686%,37.254902%,56.470588%);fill-opacity:1;" d="M 147.511719 19.457031 L 147.8125 19.757812 L 147.511719 19.457031 M 152.898438 19.457031 L 153.195312 19.757812 Z M 152.898438 19.457031 "/>
    <path style=" stroke:none;fill-rule:nonzero;fill:rgb(66.27451%,80.392157%,83.921569%);fill-opacity:1;" d="M 51.164062 19.757812 L 51.464844 20.058594 L 51.164062 19.757812 M 65.226562 19.757812 L 65.527344 20.058594 L 65.226562 19.757812 M 85.875 19.757812 L 86.171875 20.058594 L 85.875 19.757812 M 88.867188 19.757812 L 89.164062 20.058594 L 88.867188 19.757812 M 104.425781 19.757812 L 104.722656 20.058594 L 104.425781 19.757812 M 117.589844 19.757812 L 117.890625 20.058594 L 117.589844 19.757812 M 153.195312 19.757812 L 153.496094 20.058594 Z M 153.195312 19.757812 "/>
    <path style=" stroke:none;fill-rule:nonzero;fill:rgb(27.058824%,81.568627%,80%);fill-opacity:1;" d="M 16.757812 20.058594 C 17.070312 21.933594 18.792969 21.554688 20.347656 21.554688 C 23.996094 21.554688 28.15625 22.101562 31.714844 21.253906 C 31.171875 19.617188 29.277344 20.058594 27.828125 20.058594 Z M 16.757812 20.058594 "/>
    <path style=" stroke:none;fill-rule:nonzero;fill:rgb(66.27451%,80.392157%,83.921569%);fill-opacity:1;" d="M 31.417969 20.058594 L 31.714844 20.355469 Z M 31.417969 20.058594 "/>
    <path style=" stroke:none;fill-rule:nonzero;fill:rgb(27.058824%,81.568627%,80%);fill-opacity:1;" d="M 42.1875 20.058594 L 36.503906 20.058594 C 29.003906 20.058594 41.523438 24.042969 42.1875 20.058594 Z M 42.1875 20.058594 "/>
    <path style=" stroke:none;fill-rule:nonzero;fill:rgb(66.27451%,80.392157%,83.921569%);fill-opacity:1;" d="M 51.464844 20.058594 L 51.765625 20.355469 L 51.464844 20.058594 M 89.164062 20.058594 L 89.464844 20.355469 L 89.164062 20.058594 M 96.347656 20.058594 L 96.644531 20.355469 L 96.347656 20.058594 M 107.117188 20.058594 L 107.417969 20.355469 L 107.117188 20.058594 M 114.898438 20.058594 L 115.195312 20.355469 L 114.898438 20.058594 M 147.210938 20.058594 L 147.511719 20.355469 Z M 147.210938 20.058594 "/>
    <path style=" stroke:none;fill-rule:nonzero;fill:rgb(19.215686%,37.254902%,56.470588%);fill-opacity:1;" d="M 153.195312 20.058594 L 153.496094 20.355469 Z M 153.195312 20.058594 "/>
    <path style=" stroke:none;fill-rule:nonzero;fill:rgb(66.27451%,80.392157%,83.921569%);fill-opacity:1;" d="M 174.140625 20.058594 L 174.140625 20.957031 L 174.441406 20.957031 L 174.140625 20.058594 M 8.378906 20.355469 L 8.675781 20.65625 L 8.378906 20.355469 M 16.554688 20.554688 L 16.65625 20.753906 L 16.554688 20.554688 M 33.210938 20.355469 L 33.511719 20.65625 L 33.210938 20.355469 M 42.289062 20.554688 L 42.386719 20.753906 L 42.289062 20.554688 M 51.765625 20.355469 L 52.0625 20.65625 L 51.765625 20.355469 M 64.929688 20.355469 L 65.226562 20.65625 L 64.929688 20.355469 M 67.921875 20.355469 L 68.21875 20.65625 L 67.921875 20.355469 M 93.054688 20.355469 L 93.355469 20.65625 L 93.054688 20.355469 M 96.046875 20.355469 L 96.347656 20.65625 L 96.046875 20.355469 M 117.390625 20.554688 L 117.492188 20.753906 Z M 117.390625 20.554688 "/>
    <path style=" stroke:none;fill-rule:nonzero;fill:rgb(19.215686%,37.254902%,56.470588%);fill-opacity:1;" d="M 147.210938 20.355469 L 147.511719 20.65625 Z M 147.210938 20.355469 "/>
    <path style=" stroke:none;fill-rule:nonzero;fill:rgb(66.27451%,80.392157%,83.921569%);fill-opacity:1;" d="M 153.496094 20.355469 L 153.796875 20.65625 Z M 153.496094 20.355469 "/>
    <path style=" stroke:none;fill-rule:nonzero;fill:rgb(19.215686%,37.254902%,56.470588%);fill-opacity:1;" d="M 179.527344 20.355469 L 179.828125 20.65625 Z M 179.527344 20.355469 "/>
    <path style=" stroke:none;fill-rule:nonzero;fill:rgb(66.27451%,80.392157%,83.921569%);fill-opacity:1;" d="M 8.078125 20.65625 L 8.378906 20.957031 L 8.078125 20.65625 M 52.0625 20.65625 L 52.363281 20.957031 L 52.0625 20.65625 M 86.472656 20.65625 L 86.773438 20.957031 L 86.472656 20.65625 M 89.464844 20.65625 L 89.765625 20.957031 L 89.464844 20.65625 M 104.722656 20.65625 L 105.023438 20.957031 L 104.722656 20.65625 M 107.417969 20.65625 L 107.714844 20.957031 L 107.417969 20.65625 M 114.699219 20.855469 L 114.796875 21.054688 L 114.699219 20.855469 M 146.914062 20.65625 L 147.210938 20.957031 Z M 146.914062 20.65625 "/>
    <path style=" stroke:none;fill-rule:nonzero;fill:rgb(19.215686%,37.254902%,56.470588%);fill-opacity:1;" d="M 153.59375 20.855469 L 153.695312 21.054688 Z M 153.59375 20.855469 "/>
    <path style=" stroke:none;fill-rule:nonzero;fill:rgb(66.27451%,80.392157%,83.921569%);fill-opacity:1;" d="M 179.527344 20.65625 L 179.828125 20.957031 L 179.527344 20.65625 M 33.210938 20.957031 L 33.511719 21.253906 L 33.210938 20.957031 M 64.730469 21.15625 L 64.828125 21.355469 L 64.730469 21.15625 M 67.621094 20.957031 L 67.921875 21.253906 L 67.621094 20.957031 M 89.765625 20.957031 L 90.0625 21.253906 L 89.765625 20.957031 M 92.757812 20.957031 L 93.054688 21.253906 L 92.757812 20.957031 M 95.746094 20.957031 L 96.046875 21.253906 Z M 95.746094 20.957031 "/>
    <path style=" stroke:none;fill-rule:nonzero;fill:rgb(19.215686%,37.254902%,56.470588%);fill-opacity:1;" d="M 146.914062 20.957031 L 147.210938 21.253906 L 146.914062 20.957031 M 148.109375 20.957031 L 148.707031 21.554688 L 148.109375 20.957031 M 174.242188 21.15625 L 174.339844 21.355469 Z M 174.242188 21.15625 "/>
    <path style=" stroke:none;fill-rule:nonzero;fill:rgb(66.27451%,80.392157%,83.921569%);fill-opacity:1;" d="M 5.085938 21.253906 L 5.386719 21.554688 L 5.085938 21.253906 M 16.757812 21.253906 L 17.054688 21.554688 L 16.757812 21.253906 M 31.117188 21.253906 L 31.417969 21.554688 L 31.117188 21.253906 M 33.511719 21.253906 L 33.8125 21.554688 L 33.511719 21.253906 M 41.890625 21.253906 L 42.1875 21.554688 L 41.890625 21.253906 M 50.566406 21.253906 L 50.867188 21.554688 L 50.566406 21.253906 M 92.457031 21.253906 L 92.757812 21.554688 L 92.457031 21.253906 M 95.449219 21.253906 L 95.746094 21.554688 L 95.449219 21.253906 M 105.023438 21.253906 L 105.324219 21.554688 L 105.023438 21.253906 M 107.816406 21.453125 L 107.917969 21.652344 L 107.816406 21.453125 M 116.992188 21.253906 L 117.292969 21.554688 L 116.992188 21.253906 M 148.109375 21.253906 L 148.410156 21.554688 L 148.109375 21.253906 M 153.796875 21.253906 L 154.09375 21.554688 Z M 153.796875 21.253906 "/>
    <path style=" stroke:none;fill-rule:nonzero;fill:rgb(19.215686%,37.254902%,56.470588%);fill-opacity:1;" d="M 179.226562 21.253906 L 179.527344 21.554688 Z M 179.226562 21.253906 "/>
    <path style=" stroke:none;fill-rule:nonzero;fill:rgb(66.27451%,80.392157%,83.921569%);fill-opacity:1;" d="M 50.867188 21.554688 L 51.164062 21.851562 L 50.867188 21.554688 M 67.324219 21.554688 L 67.621094 21.851562 L 67.324219 21.554688 M 87.070312 21.554688 L 87.371094 21.851562 L 87.070312 21.554688 M 90.0625 21.554688 L 90.363281 21.851562 L 90.0625 21.554688 M 114.300781 21.554688 L 114.597656 21.851562 L 114.300781 21.554688 M 146.613281 21.554688 L 146.914062 21.851562 Z M 146.613281 21.554688 "/>
    <path style="fill-rule: nonzero; fill: rgb(255, 255, 255); paint-order: fill; fill-opacity: 0;" d="M 148.109375 21.554688"/>
    <path style=" stroke:none;fill-rule:nonzero;fill:rgb(19.215686%,37.254902%,56.470588%);fill-opacity:1;" d="M 153.796875 21.554688 L 154.09375 21.851562 Z M 153.796875 21.554688 "/>
    <path style=" stroke:none;fill-rule:nonzero;fill:rgb(66.27451%,80.392157%,83.921569%);fill-opacity:1;" d="M 51.164062 21.851562 L 51.464844 22.152344 L 51.164062 21.851562 M 53.359375 22.054688 L 53.460938 22.253906 L 53.359375 22.054688 M 92.15625 21.851562 L 92.457031 22.152344 L 92.15625 21.851562 M 95.148438 21.851562 L 95.449219 22.152344 L 95.148438 21.851562 M 116.792969 22.054688 L 116.890625 22.253906 Z M 116.792969 22.054688 "/>
    <path style=" stroke:none;fill-rule:nonzero;fill:rgb(19.215686%,37.254902%,56.470588%);fill-opacity:1;" d="M 146.613281 21.851562 L 146.914062 22.152344 Z M 146.613281 21.851562 "/>
    <path style=" stroke:none;fill-rule:nonzero;fill:rgb(66.27451%,80.392157%,83.921569%);fill-opacity:1;" d="M 147.8125 21.851562 L 148.109375 22.152344 Z M 147.8125 21.851562 "/>
    <path style=" stroke:none;fill-rule:nonzero;fill:rgb(19.215686%,37.254902%,56.470588%);fill-opacity:1;" d="M 148.707031 21.851562 L 149.007812 22.152344 Z M 148.707031 21.851562 "/>
    <path style=" stroke:none;fill-rule:nonzero;fill:rgb(66.27451%,80.392157%,83.921569%);fill-opacity:1;" d="M 154.09375 21.851562 L 154.394531 22.152344 Z M 154.09375 21.851562 "/>
    <path style=" stroke:none;fill-rule:nonzero;fill:rgb(19.215686%,37.254902%,56.470588%);fill-opacity:1;" d="M 173.84375 21.851562 L 174.140625 22.152344 Z M 173.84375 21.851562 "/>
    <path style=" stroke:none;fill-rule:nonzero;fill:rgb(66.27451%,80.392157%,83.921569%);fill-opacity:1;" d="M 178.929688 21.851562 L 179.226562 22.152344 L 178.929688 21.851562 M 64.429688 22.351562 L 64.53125 22.550781 L 64.429688 22.351562 M 67.125 22.351562 L 67.222656 22.550781 L 67.125 22.351562 M 90.363281 22.152344 L 90.660156 22.453125 L 90.363281 22.152344 M 94.851562 22.152344 L 95.148438 22.453125 L 94.851562 22.152344 M 105.324219 22.152344 L 105.621094 22.453125 L 105.324219 22.152344 M 108.015625 22.152344 L 108.316406 22.453125 L 108.015625 22.152344 M 114 22.152344 L 114.300781 22.453125 L 114 22.152344 M 146.316406 22.152344 L 146.613281 22.453125 L 146.316406 22.152344 M 148.707031 22.152344 L 149.007812 22.453125 Z M 148.707031 22.152344 "/>
    <path style=" stroke:none;fill-rule:nonzero;fill:rgb(19.215686%,37.254902%,56.470588%);fill-opacity:1;" d="M 154.09375 22.152344 L 154.394531 22.453125 Z M 154.09375 22.152344 "/>
    <path style=" stroke:none;fill-rule:nonzero;fill:rgb(66.27451%,80.392157%,83.921569%);fill-opacity:1;" d="M 173.542969 22.152344 L 173.84375 22.453125 L 173.542969 22.152344 M 178.628906 22.152344 L 178.929688 22.453125 L 178.628906 22.152344 M 4.789062 22.453125 L 5.085938 22.75 L 4.789062 22.453125 M 50.867188 22.453125 L 51.164062 22.75 L 50.867188 22.453125 M 87.667969 22.453125 L 87.96875 22.75 L 87.667969 22.453125 M 90.660156 22.453125 L 90.960938 22.75 Z M 90.660156 22.453125 "/>
    <path style=" stroke:none;fill-rule:nonzero;fill:rgb(19.215686%,37.254902%,56.470588%);fill-opacity:1;" d="M 146.316406 22.453125 L 146.613281 22.75 L 146.316406 22.453125 M 147.511719 22.453125 L 147.8125 22.75 L 147.511719 22.453125 M 149.007812 22.453125 L 149.308594 22.75 Z M 149.007812 22.453125 "/>
    <path style=" stroke:none;fill-rule:nonzero;fill:rgb(66.27451%,80.392157%,83.921569%);fill-opacity:1;" d="M 154.394531 22.453125 L 154.691406 22.75 Z M 154.394531 22.453125 "/>
    <path style=" stroke:none;fill-rule:nonzero;fill:rgb(19.215686%,37.254902%,56.470588%);fill-opacity:1;" d="M 173.542969 22.453125 L 173.84375 22.75 Z M 173.542969 22.453125 "/>
    <path style=" stroke:none;fill-rule:nonzero;fill:rgb(66.27451%,80.392157%,83.921569%);fill-opacity:1;" d="M 178.332031 22.453125 L 178.628906 22.75 L 178.332031 22.453125 M 5.085938 22.75 L 5.386719 23.050781 L 5.085938 22.75 M 50.566406 22.75 L 50.867188 23.050781 L 50.566406 22.75 M 91.558594 22.75 L 91.859375 23.050781 L 91.558594 22.75 M 94.550781 22.75 L 94.851562 23.050781 L 94.550781 22.75 M 105.621094 22.75 L 105.921875 23.050781 L 105.621094 22.75 M 108.316406 22.75 L 108.613281 23.050781 L 108.316406 22.75 M 116.394531 22.75 L 116.691406 23.050781 L 116.394531 22.75 M 147.511719 22.75 L 147.8125 23.050781 L 147.511719 22.75 M 149.007812 22.75 L 149.308594 23.050781 Z M 149.007812 22.75 "/>
    <path style=" stroke:none;fill-rule:nonzero;fill:rgb(19.215686%,37.254902%,56.470588%);fill-opacity:1;" d="M 154.394531 22.75 L 154.691406 23.949219 L 154.992188 23.949219 L 154.394531 22.75 M 173.242188 22.75 L 173.542969 23.050781 L 173.242188 22.75 M 177.730469 22.75 L 178.03125 23.050781 Z M 177.730469 22.75 "/>
    <path style=" stroke:none;fill-rule:nonzero;fill:rgb(66.27451%,80.392157%,83.921569%);fill-opacity:1;" d="M 178.03125 22.75 L 178.332031 23.050781 L 178.03125 22.75 M 5.386719 23.050781 L 5.683594 23.351562 L 5.386719 23.050781 M 16.757812 23.050781 L 16.757812 24.546875 L 17.054688 24.546875 Z M 16.757812 23.050781 "/>
    <path style=" stroke:none;fill-rule:nonzero;fill:rgb(27.058824%,81.568627%,80%);fill-opacity:1;" d="M 17.253906 23.351562 C 16.429688 24.046875 17.746094 24.484375 18.257812 24.53125 C 20.511719 24.734375 22.871094 24.550781 25.132812 24.546875 C 25.777344 24.546875 27.0625 24.738281 27.476562 24.085938 C 28.082031 23.125 26.1875 23.0625 25.730469 23.050781 C 23.914062 23.019531 18.667969 22.164062 17.253906 23.351562 Z M 17.253906 23.351562 "/>
    <path style=" stroke:none;fill-rule:nonzero;fill:rgb(66.27451%,80.392157%,83.921569%);fill-opacity:1;" d="M 27.527344 23.050781 L 27.828125 23.351562 L 27.527344 23.050781 M 29.621094 23.050781 L 29.921875 23.351562 Z M 29.621094 23.050781 "/>
    <path style=" stroke:none;fill-rule:nonzero;fill:rgb(27.058824%,81.568627%,80%);fill-opacity:1;" d="M 30.121094 23.351562 C 28.96875 24.316406 32.007812 24.839844 32.714844 24.246094 C 33.863281 23.28125 30.828125 22.757812 30.121094 23.351562 Z M 30.121094 23.351562 "/>
    <path style=" stroke:none;fill-rule:nonzero;fill:rgb(66.27451%,80.392157%,83.921569%);fill-opacity:1;" d="M 32.914062 23.050781 L 33.210938 23.351562 L 32.914062 23.050781 M 35.007812 23.050781 L 35.007812 24.546875 L 35.308594 24.546875 Z M 35.007812 23.050781 "/>
    <path style=" stroke:none;fill-rule:nonzero;fill:rgb(27.058824%,81.568627%,80%);fill-opacity:1;" d="M 35.503906 23.351562 C 34.828125 23.921875 35.703125 24.414062 36.222656 24.503906 C 37.550781 24.726562 42.53125 25.183594 43.4375 24.085938 C 44.109375 23.269531 42.65625 23.078125 42.183594 23.058594 C 40.714844 22.992188 36.664062 22.378906 35.503906 23.351562 Z M 35.503906 23.351562 "/>
    <path style=" stroke:none;fill-rule:nonzero;fill:rgb(66.27451%,80.392157%,83.921569%);fill-opacity:1;" d="M 87.96875 23.050781 L 88.269531 23.351562 L 87.96875 23.050781 M 90.960938 23.050781 L 91.261719 23.351562 L 90.960938 23.050781 M 113.699219 23.050781 L 114 23.351562 Z M 113.699219 23.050781 "/>
    <path style=" stroke:none;fill-rule:nonzero;fill:rgb(19.215686%,37.254902%,56.470588%);fill-opacity:1;" d="M 146.117188 23.25 L 146.214844 23.449219 L 146.117188 23.25 M 147.210938 23.050781 L 147.511719 23.351562 Z M 147.210938 23.050781 "/>
    <path style=" stroke:none;fill-rule:nonzero;fill:rgb(66.27451%,80.392157%,83.921569%);fill-opacity:1;" d="M 154.691406 23.050781 L 154.992188 23.351562 L 154.691406 23.050781 M 172.644531 23.050781 L 172.945312 23.351562 Z M 172.644531 23.050781 "/>
    <path style=" stroke:none;fill-rule:nonzero;fill:rgb(19.215686%,37.254902%,56.470588%);fill-opacity:1;" d="M 172.945312 23.050781 L 173.242188 23.351562 Z M 172.945312 23.050781 "/>
    <path style=" stroke:none;fill-rule:nonzero;fill:rgb(66.27451%,80.392157%,83.921569%);fill-opacity:1;" d="M 177.433594 23.050781 L 177.730469 23.351562 L 177.433594 23.050781 M 5.683594 23.351562 L 5.984375 23.648438 L 5.683594 23.351562 M 8.078125 23.351562 L 8.378906 23.648438 L 8.078125 23.351562 M 43.683594 23.351562 L 43.984375 23.648438 L 43.683594 23.351562 M 74.503906 23.351562 L 74.503906 23.648438 L 81.085938 23.648438 L 74.503906 23.351562 M 88.269531 23.351562 L 88.566406 23.648438 L 88.269531 23.351562 M 105.921875 23.351562 L 106.21875 23.648438 L 105.921875 23.351562 M 108.714844 23.550781 L 108.8125 23.75 L 108.714844 23.550781 M 116.195312 23.550781 L 116.292969 23.75 L 116.195312 23.550781 M 147.210938 23.351562 L 147.511719 23.648438 L 147.210938 23.351562 M 149.308594 23.351562 L 149.605469 23.648438 L 149.308594 23.351562 M 172.347656 23.351562 L 172.644531 23.648438 Z M 172.347656 23.351562 "/>
    <path style=" stroke:none;fill-rule:nonzero;fill:rgb(19.215686%,37.254902%,56.470588%);fill-opacity:1;" d="M 176.835938 23.351562 L 177.132812 23.648438 Z M 176.835938 23.351562 "/>
    <path style=" stroke:none;fill-rule:nonzero;fill:rgb(66.27451%,80.392157%,83.921569%);fill-opacity:1;" d="M 8.378906 23.648438 L 8.675781 23.949219 L 8.378906 23.648438 M 27.828125 23.648438 L 28.125 23.949219 L 27.828125 23.648438 M 29.324219 23.648438 L 29.621094 23.949219 L 29.324219 23.648438 M 93.953125 23.648438 L 94.253906 23.949219 L 93.953125 23.648438 M 113.402344 23.648438 L 113.699219 23.949219 L 113.402344 23.648438 M 145.714844 23.648438 L 146.015625 23.949219 L 145.714844 23.648438 M 171.347656 23.75 L 171.546875 23.847656 Z M 171.347656 23.75 "/>
    <path style=" stroke:none;fill-rule:nonzero;fill:rgb(19.215686%,37.254902%,56.470588%);fill-opacity:1;" d="M 171.746094 23.648438 L 172.046875 23.949219 L 171.746094 23.648438 M 175.9375 23.648438 L 176.234375 23.949219 Z M 175.9375 23.648438 "/>
    <path style=" stroke:none;fill-rule:nonzero;fill:rgb(66.27451%,80.392157%,83.921569%);fill-opacity:1;" d="M 176.234375 23.648438 L 176.535156 23.949219 L 176.234375 23.648438 M 8.675781 23.949219 L 8.976562 24.25 L 8.675781 23.949219 M 43.683594 23.949219 L 43.984375 24.25 L 43.683594 23.949219 M 64.03125 23.949219 L 64.03125 25.445312 L 64.332031 25.445312 L 64.03125 23.949219 M 66.722656 23.949219 L 66.722656 25.148438 L 67.023438 25.148438 L 66.722656 23.949219 M 88.566406 23.949219 L 88.867188 24.25 Z M 88.566406 23.949219 "/>
    <path style=" stroke:none;fill-rule:nonzero;fill:rgb(19.215686%,37.254902%,56.470588%);fill-opacity:1;" d="M 145.714844 23.949219 L 146.015625 24.25 L 145.714844 23.949219 M 146.914062 23.949219 L 147.210938 24.25 L 146.914062 23.949219 M 149.605469 23.949219 L 149.90625 24.25 Z M 149.605469 23.949219 "/>
    <path style=" stroke:none;fill-rule:nonzero;fill:rgb(66.27451%,80.392157%,83.921569%);fill-opacity:1;" d="M 154.992188 23.949219 L 155.292969 24.25 Z M 154.992188 23.949219 "/>
    <path style=" stroke:none;fill-rule:nonzero;fill:rgb(19.215686%,37.254902%,56.470588%);fill-opacity:1;" d="M 174.441406 23.949219 L 175.636719 24.546875 L 175.636719 24.25 Z M 174.441406 23.949219 "/>
    <path style=" stroke:none;fill-rule:nonzero;fill:rgb(66.27451%,80.392157%,83.921569%);fill-opacity:1;" d="M 175.238281 24.046875 L 175.4375 24.148438 L 175.238281 24.046875 M 8.976562 24.25 L 9.277344 24.546875 L 8.976562 24.25 M 27.527344 24.25 L 27.828125 24.546875 L 27.527344 24.25 M 29.621094 24.25 L 29.921875 24.546875 L 29.621094 24.25 M 43.386719 24.25 L 43.683594 24.546875 L 43.386719 24.25 M 51.164062 24.25 L 51.464844 24.546875 L 51.164062 24.25 M 88.867188 24.25 L 89.164062 24.546875 L 88.867188 24.25 M 106.21875 24.25 L 106.519531 24.546875 L 106.21875 24.25 M 108.914062 24.25 L 109.210938 24.546875 L 108.914062 24.25 M 113.203125 24.449219 L 113.300781 24.648438 L 113.203125 24.449219 M 115.796875 24.25 L 116.09375 24.546875 L 115.796875 24.25 M 145.417969 24.25 L 145.714844 24.546875 L 145.417969 24.25 M 146.914062 24.25 L 147.210938 24.546875 Z M 146.914062 24.25 "/>
    <path style=" stroke:none;fill-rule:nonzero;fill:rgb(19.215686%,37.254902%,56.470588%);fill-opacity:1;" d="M 154.992188 24.25 L 155.292969 24.546875 Z M 154.992188 24.25 "/>
    <path style=" stroke:none;fill-rule:nonzero;fill:rgb(66.27451%,80.392157%,83.921569%);fill-opacity:1;" d="M 175.835938 24.347656 L 176.035156 24.449219 L 175.835938 24.347656 M 9.277344 24.546875 L 9.574219 24.847656 L 9.277344 24.546875 M 50.867188 24.546875 L 51.164062 24.847656 L 50.867188 24.546875 M 93.355469 24.546875 L 93.652344 24.847656 Z M 93.355469 24.546875 "/>
    <path style=" stroke:none;fill-rule:nonzero;fill:rgb(19.215686%,37.254902%,56.470588%);fill-opacity:1;" d="M 145.417969 24.546875 L 145.714844 24.847656 L 145.417969 24.546875 M 146.613281 24.546875 L 146.914062 24.847656 L 146.613281 24.546875 M 149.90625 24.546875 L 150.203125 24.847656 Z M 149.90625 24.546875 "/>
    <path style=" stroke:none;fill-rule:nonzero;fill:rgb(66.27451%,80.392157%,83.921569%);fill-opacity:1;" d="M 155.292969 24.546875 L 155.589844 24.847656 Z M 155.292969 24.546875 "/>
    <path style=" stroke:none;fill-rule:nonzero;fill:rgb(19.215686%,37.254902%,56.470588%);fill-opacity:1;" d="M 176.734375 24.648438 L 176.933594 24.746094 Z M 176.734375 24.648438 "/>
    <path style=" stroke:none;fill-rule:nonzero;fill:rgb(66.27451%,80.392157%,83.921569%);fill-opacity:1;" d="M 177.132812 24.546875 L 177.433594 24.847656 L 177.132812 24.546875 M 7.480469 24.847656 L 7.78125 25.148438 L 7.480469 24.847656 M 89.164062 24.847656 L 89.464844 25.148438 L 89.164062 24.847656 M 106.519531 24.847656 L 106.820312 25.148438 L 106.519531 24.847656 M 109.3125 25.046875 L 109.414062 25.246094 L 109.3125 25.046875 M 115.496094 24.847656 L 115.796875 25.148438 L 115.496094 24.847656 M 146.613281 24.847656 L 146.914062 25.148438 L 146.613281 24.847656 M 149.90625 24.847656 L 150.203125 25.148438 Z M 149.90625 24.847656 "/>
    <path style=" stroke:none;fill-rule:nonzero;fill:rgb(19.215686%,37.254902%,56.470588%);fill-opacity:1;" d="M 155.292969 24.847656 L 155.589844 25.148438 L 155.292969 24.847656 M 168.757812 32.628906 L 169.054688 32.628906 L 169.054688 25.148438 L 170.851562 25.148438 C 167.6875 23.867188 168.757812 30.855469 168.757812 32.628906 M 177.730469 24.847656 L 178.03125 25.148438 Z M 177.730469 24.847656 "/>
    <path style=" stroke:none;fill-rule:nonzero;fill:rgb(66.27451%,80.392157%,83.921569%);fill-opacity:1;" d="M 178.03125 24.847656 L 178.332031 25.148438 L 178.03125 24.847656 M 7.78125 25.148438 L 8.078125 25.445312 L 7.78125 25.148438 M 47.875 25.148438 L 48.171875 25.445312 L 47.875 25.148438 M 89.464844 25.148438 L 89.765625 25.445312 L 89.464844 25.148438 M 112.804688 25.148438 L 113.101562 25.445312 L 112.804688 25.148438 M 145.117188 25.148438 L 145.417969 25.445312 Z M 145.117188 25.148438 "/>
    <path style=" stroke:none;fill-rule:nonzero;fill:rgb(19.215686%,37.254902%,56.470588%);fill-opacity:1;" d="M 150.203125 25.148438 L 150.503906 25.445312 Z M 150.203125 25.148438 "/>
    <path style=" stroke:none;fill-rule:nonzero;fill:rgb(66.27451%,80.392157%,83.921569%);fill-opacity:1;" d="M 155.589844 25.148438 L 155.890625 25.445312 Z M 155.589844 25.148438 "/>
    <path style=" stroke:none;fill-rule:nonzero;fill:rgb(66.27451%,80.392157%,83.921569%);fill-opacity:1;" d="M 171.949219 25.246094 L 172.148438 25.347656 Z M 171.949219 25.246094 "/>
    <path style=" stroke:none;fill-rule:nonzero;fill:rgb(19.215686%,37.254902%,56.470588%);fill-opacity:1;" d="M 172.347656 25.148438 L 172.644531 25.445312 L 172.347656 25.148438 M 178.332031 25.148438 L 178.628906 25.445312 Z M 178.332031 25.148438 "/>
    <path style=" stroke:none;fill-rule:nonzero;fill:rgb(66.27451%,80.392157%,83.921569%);fill-opacity:1;" d="M 178.628906 25.148438 L 178.929688 25.445312 L 178.628906 25.148438 M 8.078125 25.445312 L 8.378906 25.746094 L 8.078125 25.445312 M 47.574219 25.445312 L 47.875 25.746094 L 47.574219 25.445312 M 92.757812 25.445312 L 93.054688 25.746094 L 92.757812 25.445312 M 115.296875 25.644531 L 115.394531 25.84375 Z M 115.296875 25.644531 "/>
    <path style=" stroke:none;fill-rule:nonzero;fill:rgb(19.215686%,37.254902%,56.470588%);fill-opacity:1;" d="M 145.117188 25.445312 L 145.417969 25.746094 L 145.117188 25.445312 M 146.316406 25.445312 L 146.613281 25.746094 Z M 146.316406 25.445312 "/>
    <path style=" stroke:none;fill-rule:nonzero;fill:rgb(66.27451%,80.392157%,83.921569%);fill-opacity:1;" d="M 150.203125 25.445312 L 150.503906 25.746094 Z M 150.203125 25.445312 "/>
    <path style=" stroke:none;fill-rule:nonzero;fill:rgb(19.215686%,37.254902%,56.470588%);fill-opacity:1;" d="M 155.691406 25.644531 L 155.789062 25.84375 Z M 155.691406 25.644531 "/>
    <path style=" stroke:none;fill-rule:nonzero;fill:rgb(66.27451%,80.392157%,83.921569%);fill-opacity:1;" d="M 172.945312 25.445312 L 173.242188 25.746094 Z M 172.945312 25.445312 "/>
    <path style=" stroke:none;fill-rule:nonzero;fill:rgb(19.215686%,37.254902%,56.470588%);fill-opacity:1;" d="M 173.242188 25.445312 L 173.542969 25.746094 L 173.242188 25.445312 M 178.929688 25.445312 L 179.527344 26.042969 Z M 178.929688 25.445312 "/>
    <path style=" stroke:none;fill-rule:nonzero;fill:rgb(66.27451%,80.392157%,83.921569%);fill-opacity:1;" d="M 179.226562 25.445312 L 179.527344 25.746094 L 179.226562 25.445312 M 8.378906 25.746094 L 8.675781 26.042969 L 8.378906 25.746094 M 74.503906 25.746094 L 74.503906 26.042969 L 78.394531 26.042969 L 78.394531 31.132812 L 78.691406 31.132812 L 78.691406 25.746094 L 74.503906 25.746094 M 89.765625 25.746094 L 90.0625 26.042969 L 89.765625 25.746094 M 106.820312 25.746094 L 107.117188 26.042969 L 106.820312 25.746094 M 109.511719 25.746094 L 109.8125 26.042969 L 109.511719 25.746094 M 112.503906 25.746094 L 112.804688 26.042969 L 112.503906 25.746094 M 144.820312 25.746094 L 145.117188 26.042969 L 144.820312 25.746094 M 173.542969 25.746094 L 173.84375 26.042969 Z M 173.542969 25.746094 "/>
    <path style=" stroke:none;fill-rule:nonzero;fill:rgb(19.215686%,37.254902%,56.470588%);fill-opacity:1;" d="M 173.84375 25.746094 L 174.140625 26.042969 Z M 173.84375 25.746094 "/>
    <path style=" stroke:none;fill-rule:nonzero;fill:rgb(66.27451%,80.392157%,83.921569%);fill-opacity:1;" d="M 179.527344 25.746094 L 179.828125 26.042969 L 179.527344 25.746094 M 8.675781 26.042969 L 8.976562 26.34375 L 8.675781 26.042969 M 11.070312 26.042969 L 11.371094 26.34375 L 11.070312 26.042969 M 16.757812 26.042969 L 17.054688 26.34375 Z M 16.757812 26.042969 "/>
    <path style=" stroke:none;fill-rule:nonzero;fill:rgb(27.058824%,81.568627%,80%);fill-opacity:1;" d="M 20.347656 26.34375 C 19.945312 26.246094 19.550781 26.132812 19.136719 26.097656 C 14.761719 25.734375 19.339844 29.378906 20.347656 26.34375 Z M 20.347656 26.34375 "/>
    <path style=" stroke:none;fill-rule:nonzero;fill:rgb(66.27451%,80.392157%,83.921569%);fill-opacity:1;" d="M 19.746094 26.042969 L 20.046875 26.34375 L 19.746094 26.042969 M 22.140625 26.042969 L 21.84375 26.644531 Z M 22.140625 26.042969 "/>
    <path style=" stroke:none;fill-rule:nonzero;fill:rgb(27.058824%,81.568627%,80%);fill-opacity:1;" d="M 21.84375 27.242188 C 23.027344 27.59375 24.199219 27.542969 25.433594 27.542969 L 28.125 27.542969 C 28.605469 27.542969 32.167969 27.773438 31.363281 26.507812 C 30.917969 25.800781 29.417969 26.042969 28.722656 26.042969 C 26.726562 26.042969 22.941406 25.246094 21.84375 27.242188 Z M 21.84375 27.242188 "/>
    <path style=" stroke:none;fill-rule:nonzero;fill:rgb(66.27451%,80.392157%,83.921569%);fill-opacity:1;" d="M 33.511719 26.042969 L 33.210938 27.242188 L 33.511719 27.242188 Z M 33.511719 26.042969 "/>
    <path style=" stroke:none;fill-rule:nonzero;fill:rgb(27.058824%,81.568627%,80%);fill-opacity:1;" d="M 33.511719 27.542969 L 35.015625 27.539062 C 38.769531 27.464844 34.046875 24.324219 33.511719 27.542969 Z M 33.511719 27.542969 "/>
    <path style=" stroke:none;fill-rule:nonzero;fill:rgb(66.27451%,80.392157%,83.921569%);fill-opacity:1;" d="M 36.503906 26.042969 L 36.804688 26.34375 L 36.503906 26.042969 M 92.457031 26.042969 L 92.457031 33.828125 L 92.757812 33.828125 Z M 92.457031 26.042969 "/>
    <path style=" stroke:none;fill-rule:nonzero;fill:rgb(19.215686%,37.254902%,56.470588%);fill-opacity:1;" d="M 144.820312 26.042969 L 145.117188 26.34375 L 144.820312 26.042969 M 146.015625 26.042969 L 146.316406 26.34375 Z M 146.015625 26.042969 "/>
    <path style=" stroke:none;fill-rule:nonzero;fill:rgb(66.27451%,80.392157%,83.921569%);fill-opacity:1;" d="M 150.503906 26.042969 L 150.804688 26.34375 L 150.503906 26.042969 M 155.890625 26.042969 L 156.1875 26.34375 L 155.890625 26.042969 M 174.140625 26.042969 L 174.441406 26.34375 L 174.140625 26.042969 M 179.828125 26.042969 L 180.125 26.34375 L 179.828125 26.042969 M 11.371094 26.34375 L 11.667969 26.644531 L 11.371094 26.34375 M 36.804688 26.34375 L 37.101562 26.644531 L 36.804688 26.34375 M 67.125 26.542969 L 67.222656 26.742188 L 67.125 26.542969 M 107.117188 26.34375 L 107.417969 26.644531 L 107.117188 26.34375 M 109.8125 26.34375 L 110.109375 26.644531 L 109.8125 26.34375 M 114.898438 26.34375 L 115.195312 26.644531 L 114.898438 26.34375 M 146.015625 26.34375 L 146.316406 26.644531 Z M 146.015625 26.34375 "/>
    <path style=" stroke:none;fill-rule:nonzero;fill:rgb(19.215686%,37.254902%,56.470588%);fill-opacity:1;" d="M 155.890625 26.34375 L 156.1875 26.644531 Z M 155.890625 26.34375 "/>
    <path style=" stroke:none;fill-rule:nonzero;fill:rgb(66.27451%,80.392157%,83.921569%);fill-opacity:1;" d="M 174.441406 26.34375 L 174.738281 26.644531 L 174.441406 26.34375 M 180.125 26.34375 L 180.425781 26.644531 L 180.125 26.34375 M 11.667969 26.644531 L 11.96875 26.941406 L 11.667969 26.644531 M 16.554688 26.84375 L 16.65625 27.042969 L 16.554688 26.84375 M 112.203125 26.644531 L 112.503906 26.941406 L 112.203125 26.644531 M 144.519531 26.644531 L 144.820312 26.941406 Z M 144.519531 26.644531 "/>
    <path style=" stroke:none;fill-rule:nonzero;fill:rgb(19.215686%,37.254902%,56.470588%);fill-opacity:1;" d="M 150.804688 26.644531 L 151.101562 26.941406 Z M 150.804688 26.644531 "/>
    <path style=" stroke:none;fill-rule:nonzero;fill:rgb(66.27451%,80.392157%,83.921569%);fill-opacity:1;" d="M 156.1875 26.644531 L 156.488281 26.941406 Z M 156.1875 26.644531 "/>
    <path style=" stroke:none;fill-rule:nonzero;fill:rgb(19.215686%,37.254902%,56.470588%);fill-opacity:1;" d="M 174.738281 26.644531 L 175.039062 26.941406 L 174.738281 26.644531 M 180.125 26.644531 L 180.425781 26.941406 Z M 180.125 26.644531 "/>
    <path style=" stroke:none;fill-rule:nonzero;fill:rgb(66.27451%,80.392157%,83.921569%);fill-opacity:1;" d="M 7.480469 26.941406 L 8.378906 27.839844 L 7.480469 26.941406 M 11.96875 26.941406 L 12.269531 27.242188 L 11.96875 26.941406 M 36.804688 26.941406 L 37.101562 27.242188 L 36.804688 26.941406 M 48.171875 26.941406 L 48.472656 27.242188 L 48.171875 26.941406 M 50.566406 26.941406 L 50.566406 35.921875 L 50.867188 35.921875 L 50.566406 26.941406 M 64.332031 26.941406 L 64.628906 27.242188 L 64.332031 26.941406 M 110.210938 27.140625 L 110.308594 27.34375 L 110.210938 27.140625 M 114.699219 27.140625 L 114.796875 27.34375 Z M 114.699219 27.140625 "/>
    <path style=" stroke:none;fill-rule:nonzero;fill:rgb(19.215686%,37.254902%,56.470588%);fill-opacity:1;" d="M 144.519531 26.941406 L 144.820312 27.242188 Z M 144.519531 26.941406 "/>
    <path style=" stroke:none;fill-rule:nonzero;fill:rgb(66.27451%,80.392157%,83.921569%);fill-opacity:1;" d="M 145.714844 26.941406 L 146.015625 27.242188 Z M 145.714844 26.941406 "/>
    <path style=" stroke:none;fill-rule:nonzero;fill:rgb(19.215686%,37.254902%,56.470588%);fill-opacity:1;" d="M 156.1875 26.941406 L 156.488281 27.242188 L 156.1875 26.941406 M 180.523438 27.140625 L 180.625 27.34375 Z M 180.523438 27.140625 "/>
    <path style=" stroke:none;fill-rule:nonzero;fill:rgb(27.058824%,81.568627%,80%);fill-opacity:1;" d="M 8.977 34.426 L 49.371 34.426 C 49.371 32.145 48.66 28.832 50.566 27.242 C 50.566 29.996 51.602 35.414 49.773 37.656 C 48.625 39.066 46.816 38.918 45.18 38.918 L 34.41 38.918 L 34.41 41.313 C 35.102 41.313 38.871 40.898 38.621 42.16 C 38.395 43.313 34.672 42.809 33.813 42.809 L 23.637 42.809 C 22.676 42.809 20.734 43.168 19.945 42.508 C 18.465 41.262 23.457 41.313 23.938 41.313 L 23.938 38.918 L 13.164 38.918 C 11.223 38.918 9.254 38.961 8.082 37.109 C 6.574 34.723 7.48 29.984 7.48 27.242 C 9.766 28.672 8.977 32.035 8.977 34.426 Z M 9.277 35.922 C 10.59 38.43 15.512 37.422 17.953 37.422 L 40.992 37.422 C 43.434 37.422 47.664 38.336 49.07 35.922 Z M 25.434 38.918 L 25.434 41.313 L 32.914 41.313 L 32.914 38.918 Z"/>
    <path style=" stroke:none;fill-rule:nonzero;fill:rgb(66.27451%,80.392157%,83.921569%);fill-opacity:1;" d="M 12.269531 27.242188 L 12.566406 27.542969 L 12.269531 27.242188 M 16.757812 27.242188 L 17.054688 27.542969 L 16.757812 27.242188 M 47.875 27.242188 L 48.171875 27.542969 L 47.875 27.242188 M 107.417969 27.242188 L 107.714844 27.542969 L 107.417969 27.242188 M 111.90625 27.242188 L 112.203125 27.542969 L 111.90625 27.242188 M 144.21875 27.242188 L 144.519531 27.542969 Z M 144.21875 27.242188 "/>
    <path style=" stroke:none;fill-rule:nonzero;fill:rgb(19.215686%,37.254902%,56.470588%);fill-opacity:1;" d="M 151.203125 27.441406 L 151.300781 27.640625 Z M 151.203125 27.441406 "/>
    <path style=" stroke:none;fill-rule:nonzero;fill:rgb(66.27451%,80.392157%,83.921569%);fill-opacity:1;" d="M 156.488281 27.242188 L 156.789062 27.542969 Z M 156.488281 27.242188 "/>
    <path style=" stroke:none;fill-rule:nonzero;fill:rgb(19.215686%,37.254902%,56.470588%);fill-opacity:1;" d="M 175.039062 27.242188 L 175.339844 27.542969 Z M 175.039062 27.242188 "/>
    <path style=" stroke:none;fill-rule:nonzero;fill:rgb(66.27451%,80.392157%,83.921569%);fill-opacity:1;" d="M 10.472656 27.542969 L 10.773438 27.839844 L 10.472656 27.542969 M 67.324219 27.542969 L 67.621094 27.839844 Z M 67.324219 27.542969 "/>
    <path style=" stroke:none;fill-rule:nonzero;fill:rgb(19.215686%,37.254902%,56.470588%);fill-opacity:1;" d="M 144.21875 27.542969 L 144.519531 27.839844 L 144.21875 27.542969 M 145.417969 27.542969 L 145.714844 27.839844 Z M 145.417969 27.542969 "/>
    <path style=" stroke:none;fill-rule:nonzero;fill:rgb(66.27451%,80.392157%,83.921569%);fill-opacity:1;" d="M 145.714844 27.542969 L 145.714844 27.839844 L 151.101562 27.839844 Z M 145.714844 27.542969 "/>
    <path style=" stroke:none;fill-rule:nonzero;fill:rgb(19.215686%,37.254902%,56.470588%);fill-opacity:1;" d="M 156.585938 27.742188 L 156.6875 27.941406 Z M 156.585938 27.742188 "/>
    <path style=" stroke:none;fill-rule:nonzero;fill:rgb(66.27451%,80.392157%,83.921569%);fill-opacity:1;" d="M 175.039062 27.542969 L 175.339844 27.839844 L 175.039062 27.542969 M 180.722656 27.542969 L 181.023438 27.839844 L 180.722656 27.542969 M 10.773438 27.839844 L 11.070312 28.140625 L 10.773438 27.839844 M 44.882812 27.839844 L 45.179688 28.140625 L 44.882812 27.839844 M 107.714844 27.839844 L 108.015625 28.140625 L 107.714844 27.839844 M 110.410156 27.839844 L 110.707031 28.140625 L 110.410156 27.839844 M 111.707031 28.039062 L 111.804688 28.238281 L 111.707031 28.039062 M 114.300781 27.839844 L 114.597656 28.140625 Z M 114.300781 27.839844 "/>
    <path style=" stroke:none;fill-rule:nonzero;fill:rgb(19.215686%,37.254902%,56.470588%);fill-opacity:1;" d="M 180.722656 27.839844 L 180.722656 29.039062 L 181.023438 29.039062 Z M 180.722656 27.839844 "/>
    <path style=" stroke:none;fill-rule:nonzero;fill:rgb(66.27451%,80.392157%,83.921569%);fill-opacity:1;" d="M 11.070312 28.140625 L 11.371094 28.441406 L 11.070312 28.140625 M 44.582031 28.140625 L 44.882812 28.441406 L 44.582031 28.140625 M 64.628906 28.140625 L 64.929688 28.441406 L 64.628906 28.140625 M 67.621094 28.140625 L 67.921875 28.441406 Z M 67.621094 28.140625 "/>
    <path style=" stroke:none;fill-rule:nonzero;fill:rgb(19.215686%,37.254902%,56.470588%);fill-opacity:1;" d="M 143.921875 28.140625 L 144.21875 28.441406 L 143.921875 28.140625 M 156.886719 28.339844 L 156.988281 28.539062 L 156.886719 28.339844 M 175.339844 28.140625 L 175.636719 28.441406 Z M 175.339844 28.140625 "/>
    <path style=" stroke:none;fill-rule:nonzero;fill:rgb(66.27451%,80.392157%,83.921569%);fill-opacity:1;" d="M 11.371094 28.441406 L 11.667969 28.738281 L 11.371094 28.441406 M 44.285156 28.441406 L 44.582031 28.738281 L 44.285156 28.441406 M 49.070312 28.441406 L 49.070312 34.425781 L 49.371094 34.425781 L 49.070312 28.441406 M 108.117188 28.640625 L 108.214844 28.839844 L 108.117188 28.640625 M 110.707031 28.441406 L 111.007812 28.738281 L 110.707031 28.441406 M 114.101562 28.640625 L 114.199219 28.839844 L 114.101562 28.640625 M 175.339844 28.441406 L 175.339844 29.636719 L 175.636719 29.636719 L 175.339844 28.441406 M 11.667969 28.738281 L 11.96875 29.039062 L 11.667969 28.738281 M 13.863281 28.9375 L 13.964844 29.136719 L 13.863281 28.9375 M 64.929688 28.738281 L 65.226562 29.039062 L 64.929688 28.738281 M 67.921875 28.738281 L 68.21875 29.039062 L 67.921875 28.738281 M 111.308594 28.738281 L 111.605469 29.039062 Z M 111.308594 28.738281 "/>
    <path style=" stroke:none;fill-rule:nonzero;fill:rgb(19.215686%,37.254902%,56.470588%);fill-opacity:1;" d="M 138.535156 28.738281 L 138.835938 29.039062 L 138.535156 28.738281 M 139.132812 28.738281 L 139.433594 29.039062 Z M 139.132812 28.738281 "/>
    <path style=" stroke:none;fill-rule:nonzero;fill:rgb(66.27451%,80.392157%,83.921569%);fill-opacity:1;" d="M 139.53125 28.9375 L 139.632812 29.136719 L 139.53125 28.9375 M 143.621094 28.738281 L 143.921875 29.039062 Z M 143.621094 28.738281 "/>
    <path style=" stroke:none;fill-rule:nonzero;fill:rgb(19.215686%,37.254902%,56.470588%);fill-opacity:1;" d="M 151.699219 28.738281 L 152 29.039062 Z M 151.699219 28.738281 "/>
    <path style=" stroke:none;fill-rule:nonzero;fill:rgb(66.27451%,80.392157%,83.921569%);fill-opacity:1;" d="M 157.085938 28.738281 L 157.386719 29.039062 L 157.085938 28.738281 M 68.21875 29.039062 L 68.519531 29.335938 Z M 68.21875 29.039062 "/>
    <path style=" stroke:none;fill-rule:nonzero;fill:rgb(19.215686%,37.254902%,56.470588%);fill-opacity:1;" d="M 143.621094 29.039062 L 143.921875 29.335938 L 143.621094 29.039062 M 144.820312 29.039062 L 145.117188 29.335938 L 144.820312 29.039062 M 157.085938 29.039062 L 157.386719 29.335938 Z M 157.085938 29.039062 "/>
    <path style=" stroke:none;fill-rule:nonzero;fill:rgb(66.27451%,80.392157%,83.921569%);fill-opacity:1;" d="M 44.285156 29.335938 L 44.582031 29.636719 L 44.285156 29.335938 M 65.226562 29.335938 L 65.527344 29.636719 L 65.226562 29.335938 M 68.519531 29.335938 L 68.820312 29.636719 L 68.519531 29.335938 M 108.316406 29.335938 L 108.613281 29.636719 L 108.316406 29.335938 M 113.699219 29.335938 L 114 29.636719 Z M 113.699219 29.335938 "/>
    <path style=" stroke:none;fill-rule:nonzero;fill:rgb(19.215686%,37.254902%,56.470588%);fill-opacity:1;" d="M 139.433594 29.335938 L 139.433594 34.425781 L 139.730469 34.425781 Z M 139.433594 29.335938 "/>
    <path style=" stroke:none;fill-rule:nonzero;fill:rgb(66.27451%,80.392157%,83.921569%);fill-opacity:1;" d="M 143.324219 29.335938 L 143.621094 29.636719 Z M 143.324219 29.335938 "/>
    <path style=" stroke:none;fill-rule:nonzero;fill:rgb(19.215686%,37.254902%,56.470588%);fill-opacity:1;" d="M 152 29.335938 L 152.300781 29.636719 Z M 152 29.335938 "/>
    <path style=" stroke:none;fill-rule:nonzero;fill:rgb(66.27451%,80.392157%,83.921569%);fill-opacity:1;" d="M 157.386719 29.335938 L 157.683594 29.636719 Z M 157.386719 29.335938 "/>
    <path style=" stroke:none;fill-rule:nonzero;fill:rgb(19.215686%,37.254902%,56.470588%);fill-opacity:1;" d="M 180.722656 29.335938 L 180.722656 30.234375 L 181.023438 30.234375 Z M 180.722656 29.335938 "/>
    <path style=" stroke:none;fill-rule:nonzero;fill:rgb(66.27451%,80.392157%,83.921569%);fill-opacity:1;" d="M 13.066406 29.738281 L 13.265625 29.835938 L 13.066406 29.738281 M 44.882812 29.636719 L 45.179688 29.9375 Z M 44.882812 29.636719 "/>
    <path style=" stroke:none;fill-rule:nonzero;fill:rgb(19.215686%,37.254902%,56.470588%);fill-opacity:1;" d="M 143.324219 29.636719 L 143.621094 29.9375 L 143.324219 29.636719 M 144.519531 29.636719 L 144.820312 29.9375 Z M 144.519531 29.636719 "/>
    <path style=" stroke:none;fill-rule:nonzero;fill:rgb(66.27451%,80.392157%,83.921569%);fill-opacity:1;" d="M 152 29.636719 L 152.300781 29.9375 Z M 152 29.636719 "/>
    <path style=" stroke:none;fill-rule:nonzero;fill:rgb(19.215686%,37.254902%,56.470588%);fill-opacity:1;" d="M 157.386719 29.636719 L 157.683594 30.835938 L 157.984375 30.835938 L 157.386719 29.636719 M 175.4375 29.835938 L 175.539062 30.035156 Z M 175.4375 29.835938 "/>
    <path style=" stroke:none;fill-rule:nonzero;fill:rgb(66.27451%,80.392157%,83.921569%);fill-opacity:1;" d="M 65.527344 29.9375 L 65.828125 30.234375 L 65.527344 29.9375 M 108.613281 29.9375 L 108.914062 30.234375 L 108.613281 29.9375 M 113.5 30.136719 L 113.601562 30.335938 L 113.5 30.136719 M 138.335938 30.136719 L 138.4375 30.335938 L 138.335938 30.136719 M 144.519531 29.9375 L 144.820312 30.234375 Z M 144.519531 29.9375 "/>
    <path style=" stroke:none;fill-rule:nonzero;fill:rgb(19.215686%,37.254902%,56.470588%);fill-opacity:1;" d="M 152.300781 29.9375 L 152.597656 30.234375 Z M 152.300781 29.9375 "/>
    <path style=" stroke:none;fill-rule:nonzero;fill:rgb(66.27451%,80.392157%,83.921569%);fill-opacity:1;" d="M 157.683594 29.9375 L 157.984375 30.234375 L 157.683594 29.9375 M 143.023438 30.234375 L 143.324219 30.535156 L 143.023438 30.234375 M 152.300781 30.234375 L 152.597656 30.535156 L 152.300781 30.234375 M 180.722656 30.234375 L 181.023438 30.535156 L 180.722656 30.234375 M 69.714844 30.535156 L 70.015625 30.835938 Z M 69.714844 30.535156 "/>
    <path style=" stroke:none;fill-rule:nonzero;fill:rgb(19.215686%,37.254902%,56.470588%);fill-opacity:1;" d="M 138.234375 30.535156 L 138.535156 30.835938 L 138.234375 30.535156 M 143.023438 30.535156 L 143.324219 30.835938 Z M 143.023438 30.535156 "/>
    <path style=" stroke:none;fill-rule:nonzero;fill:rgb(66.27451%,80.392157%,83.921569%);fill-opacity:1;" d="M 144.21875 30.535156 L 144.519531 30.835938 Z M 144.21875 30.535156 "/>
    <path style=" stroke:none;fill-rule:nonzero;fill:rgb(19.215686%,37.254902%,56.470588%);fill-opacity:1;" d="M 152.597656 30.535156 L 152.898438 30.835938 Z M 152.597656 30.535156 "/>
    <path style=" stroke:none;fill-rule:nonzero;fill:rgb(66.27451%,80.392157%,83.921569%);fill-opacity:1;" d="M 175.039062 30.535156 L 175.339844 30.835938 L 175.039062 30.535156 M 70.015625 30.835938 L 70.316406 31.132812 L 70.015625 30.835938 M 108.914062 30.835938 L 109.210938 31.132812 L 108.914062 30.835938 M 113.101562 30.835938 L 113.402344 31.132812 L 113.101562 30.835938 M 142.722656 30.835938 L 143.023438 31.132812 L 142.722656 30.835938 M 152.597656 30.835938 L 152.898438 31.132812 L 152.597656 30.835938 M 157.984375 30.835938 L 158.285156 31.132812 Z M 157.984375 30.835938 "/>
    <path style=" stroke:none;fill-rule:nonzero;fill:rgb(19.215686%,37.254902%,56.470588%);fill-opacity:1;" d="M 175.039062 30.835938 L 175.339844 31.132812 L 175.039062 30.835938 M 180.425781 30.835938 L 180.722656 31.132812 Z M 180.425781 30.835938 "/>
    <path style=" stroke:none;fill-rule:nonzero;fill:rgb(66.27451%,80.392157%,83.921569%);fill-opacity:1;" d="M 66.425781 31.132812 L 66.722656 31.433594 L 66.425781 31.132812 M 70.613281 31.132812 L 70.914062 31.433594 L 70.613281 31.132812 M 78.09375 31.132812 L 78.394531 31.433594 L 78.09375 31.132812 M 137.9375 31.132812 L 138.234375 31.433594 Z M 137.9375 31.132812 "/>
    <path style=" stroke:none;fill-rule:nonzero;fill:rgb(19.215686%,37.254902%,56.470588%);fill-opacity:1;" d="M 142.722656 31.132812 L 143.023438 31.433594 L 142.722656 31.132812 M 143.921875 31.132812 L 144.21875 31.433594 L 143.921875 31.132812 M 157.984375 31.132812 L 158.285156 31.433594 Z M 157.984375 31.132812 "/>
    <path style=" stroke:none;fill-rule:nonzero;fill:rgb(66.27451%,80.392157%,83.921569%);fill-opacity:1;" d="M 174.738281 31.132812 L 175.039062 31.433594 L 174.738281 31.132812 M 180.425781 31.132812 L 180.722656 31.433594 L 180.425781 31.132812 M 66.722656 31.433594 L 67.023438 31.734375 L 66.722656 31.433594 M 71.414062 31.53125 L 71.613281 31.632812 L 71.414062 31.53125 M 77.394531 31.53125 L 77.59375 31.632812 L 77.394531 31.53125 M 109.210938 31.433594 L 109.511719 31.734375 L 109.210938 31.433594 M 112.804688 31.433594 L 113.101562 31.734375 L 112.804688 31.433594 M 143.921875 31.433594 L 144.21875 31.734375 Z M 143.921875 31.433594 "/>
    <path style=" stroke:none;fill-rule:nonzero;fill:rgb(19.215686%,37.254902%,56.470588%);fill-opacity:1;" d="M 152.898438 31.433594 L 153.195312 31.734375 Z M 152.898438 31.433594 "/>
    <path style=" stroke:none;fill-rule:nonzero;fill:rgb(66.27451%,80.392157%,83.921569%);fill-opacity:1;" d="M 158.285156 31.433594 L 158.582031 31.734375 Z M 158.285156 31.433594 "/>
    <path style=" stroke:none;fill-rule:nonzero;fill:rgb(19.215686%,37.254902%,56.470588%);fill-opacity:1;" d="M 180.125 31.433594 L 180.425781 31.734375 Z M 180.125 31.433594 "/>
    <path style=" stroke:none;fill-rule:nonzero;fill:rgb(66.27451%,80.392157%,83.921569%);fill-opacity:1;" d="M 67.023438 31.734375 L 67.324219 32.03125 L 67.023438 31.734375 M 72.109375 31.734375 L 72.109375 32.03125 L 73.308594 32.03125 L 72.109375 31.734375 M 75.699219 31.734375 L 75.699219 32.03125 L 76.597656 32.03125 Z M 75.699219 31.734375 "/>
    <path style=" stroke:none;fill-rule:nonzero;fill:rgb(19.215686%,37.254902%,56.470588%);fill-opacity:1;" d="M 137.636719 31.734375 L 137.9375 32.03125 L 137.636719 31.734375 M 142.523438 31.933594 L 142.625 32.132812 L 142.523438 31.933594 M 143.621094 31.734375 L 143.921875 32.03125 L 143.621094 31.734375 M 158.285156 31.734375 L 158.582031 32.03125 L 158.285156 31.734375 M 174.441406 31.734375 L 174.738281 32.03125 L 174.441406 31.734375 M 179.828125 31.734375 L 180.125 32.03125 Z M 179.828125 31.734375 "/>
    <path style=" stroke:none;fill-rule:nonzero;fill:rgb(66.27451%,80.392157%,83.921569%);fill-opacity:1;" d="M 112.605469 32.230469 L 112.703125 32.429688 L 112.605469 32.230469 M 137.339844 32.03125 L 137.636719 32.332031 L 137.339844 32.03125 M 143.621094 32.03125 L 143.921875 32.332031 Z M 143.621094 32.03125 "/>
    <path style=" stroke:none;fill-rule:nonzero;fill:rgb(19.215686%,37.254902%,56.470588%);fill-opacity:1;" d="M 153.195312 32.03125 L 153.496094 32.332031 Z M 153.195312 32.03125 "/>
    <path style=" stroke:none;fill-rule:nonzero;fill:rgb(66.27451%,80.392157%,83.921569%);fill-opacity:1;" d="M 158.582031 32.03125 L 158.882812 32.332031 Z M 158.582031 32.03125 "/>
    <path style=" stroke:none;fill-rule:nonzero;fill:rgb(19.215686%,37.254902%,56.470588%);fill-opacity:1;" d="M 174.140625 32.03125 L 174.441406 32.332031 Z M 174.140625 32.03125 "/>
    <path style=" stroke:none;fill-rule:nonzero;fill:rgb(66.27451%,80.392157%,83.921569%);fill-opacity:1;" d="M 179.828125 32.03125 L 180.125 32.332031 L 179.828125 32.03125 M 109.511719 32.332031 L 109.8125 32.628906 L 109.511719 32.332031 M 137.039062 32.332031 L 137.339844 32.628906 L 137.039062 32.332031 M 142.125 32.332031 L 142.425781 32.628906 L 142.125 32.332031 M 153.296875 32.53125 L 153.394531 32.730469 Z M 153.296875 32.53125 "/>
    <path style=" stroke:none;fill-rule:nonzero;fill:rgb(19.215686%,37.254902%,56.470588%);fill-opacity:1;" d="M 158.582031 32.332031 L 158.882812 32.628906 Z M 158.582031 32.332031 "/>
    <path style=" stroke:none;fill-rule:nonzero;fill:rgb(66.27451%,80.392157%,83.921569%);fill-opacity:1;" d="M 173.542969 32.332031 L 173.84375 32.628906 Z M 173.542969 32.332031 "/>
    <path style=" stroke:none;fill-rule:nonzero;fill:rgb(19.215686%,37.254902%,56.470588%);fill-opacity:1;" d="M 179.226562 32.332031 L 179.527344 32.628906 Z M 179.226562 32.332031 "/>
    <path style=" stroke:none;fill-rule:nonzero;fill:rgb(66.27451%,80.392157%,83.921569%);fill-opacity:1;" d="M 179.527344 32.332031 L 179.828125 32.628906 L 179.527344 32.332031 M 68.21875 32.628906 L 68.519531 32.929688 L 68.21875 32.628906 M 80.789062 32.628906 L 81.085938 32.929688 L 80.789062 32.628906 M 125.371094 32.628906 L 125.667969 32.929688 Z M 125.371094 32.628906 "/>
    <path style=" stroke:none;fill-rule:nonzero;fill:rgb(19.215686%,37.254902%,56.470588%);fill-opacity:1;" d="M 136.738281 32.628906 L 137.039062 32.929688 L 136.738281 32.628906 M 142.125 32.628906 L 142.425781 32.929688 Z M 142.125 32.628906 "/>
    <path style=" stroke:none;fill-rule:nonzero;fill:rgb(66.27451%,80.392157%,83.921569%);fill-opacity:1;" d="M 143.621094 32.628906 L 143.921875 32.929688 L 143.621094 32.628906 M 158.882812 32.628906 L 159.480469 33.230469 L 158.882812 32.628906 M 163.667969 32.628906 L 163.96875 32.929688 L 163.667969 32.628906 M 169.054688 32.628906 L 169.355469 32.929688 L 169.054688 32.628906 M 172.945312 32.628906 L 173.242188 32.929688 Z M 172.945312 32.628906 "/>
    <path style=" stroke:none;fill-rule:nonzero;fill:rgb(19.215686%,37.254902%,56.470588%);fill-opacity:1;" d="M 173.242188 32.628906 L 173.542969 32.929688 L 173.242188 32.628906 M 178.929688 32.628906 L 179.226562 32.929688 Z M 178.929688 32.628906 "/>
    <path style=" stroke:none;fill-rule:nonzero;fill:rgb(66.27451%,80.392157%,83.921569%);fill-opacity:1;" d="M 68.820312 32.929688 L 69.117188 33.230469 L 68.820312 32.929688 M 80.1875 32.929688 L 80.488281 33.230469 L 80.1875 32.929688 M 109.8125 32.929688 L 110.109375 33.230469 L 109.8125 32.929688 M 112.203125 32.929688 L 112.503906 33.230469 L 112.203125 32.929688 M 125.070312 32.929688 L 125.371094 33.230469 Z M 125.070312 32.929688 "/>
    <path style=" stroke:none;fill-rule:nonzero;fill:rgb(19.215686%,37.254902%,56.470588%);fill-opacity:1;" d="M 130.757812 32.929688 L 131.054688 33.230469 Z M 130.757812 32.929688 "/>
    <path style=" stroke:none;fill-rule:nonzero;fill:rgb(66.27451%,80.392157%,83.921569%);fill-opacity:1;" d="M 136.140625 32.929688 L 136.441406 33.230469 Z M 136.140625 32.929688 "/>
    <path style=" stroke:none;fill-rule:nonzero;fill:rgb(19.215686%,37.254902%,56.470588%);fill-opacity:1;" d="M 141.828125 32.929688 L 142.125 33.230469 L 141.828125 32.929688 M 143.621094 32.929688 L 143.921875 33.230469 L 143.621094 32.929688 M 153.195312 32.929688 L 153.496094 33.230469 L 153.195312 32.929688 M 158.882812 32.929688 L 159.179688 33.230469 Z M 158.882812 32.929688 "/>
    <path style=" stroke:none;fill-rule:nonzero;fill:rgb(66.27451%,80.392157%,83.921569%);fill-opacity:1;" d="M 163.371094 32.929688 L 163.667969 33.230469 Z M 163.371094 32.929688 "/>
    <path style=" stroke:none;fill-rule:nonzero;fill:rgb(19.215686%,37.254902%,56.470588%);fill-opacity:1;" d="M 169.054688 32.929688 L 169.355469 33.230469 Z M 169.054688 32.929688 "/>
    <path style=" stroke:none;fill-rule:nonzero;fill:rgb(66.27451%,80.392157%,83.921569%);fill-opacity:1;" d="M 172.246094 33.03125 L 172.445312 33.128906 L 172.246094 33.03125 M 178.628906 32.929688 L 178.929688 33.230469 L 178.628906 32.929688 M 69.417969 33.230469 L 69.714844 33.527344 L 69.417969 33.230469 M 79.589844 33.230469 L 79.890625 33.527344 L 79.589844 33.230469 M 123.875 33.230469 L 124.171875 33.527344 Z M 123.875 33.230469 "/>
    <path style=" stroke:none;fill-rule:nonzero;fill:rgb(19.215686%,37.254902%,56.470588%);fill-opacity:1;" d="M 124.171875 33.230469 L 124.171875 33.527344 L 125.070312 33.527344 L 124.171875 33.230469 M 131.054688 33.230469 L 131.054688 33.527344 L 135.542969 33.527344 Z M 131.054688 33.230469 "/>
    <path style=" stroke:none;fill-rule:nonzero;fill:rgb(66.27451%,80.392157%,83.921569%);fill-opacity:1;" d="M 140.03125 33.230469 L 140.332031 33.527344 Z M 140.03125 33.230469 "/>
    <path style=" stroke:none;fill-rule:nonzero;fill:rgb(19.215686%,37.254902%,56.470588%);fill-opacity:1;" d="M 140.332031 33.230469 L 140.332031 33.527344 L 141.527344 33.527344 L 140.332031 33.230469 M 143.921875 33.230469 L 143.921875 33.527344 L 145.417969 33.527344 Z M 143.921875 33.230469 "/>
    <path style=" stroke:none;fill-rule:nonzero;fill:rgb(66.27451%,80.392157%,83.921569%);fill-opacity:1;" d="M 145.417969 33.230469 L 145.714844 33.527344 L 145.417969 33.230469 M 151.402344 33.230469 L 151.699219 33.527344 Z M 151.402344 33.230469 "/>
    <path style=" stroke:none;fill-rule:nonzero;fill:rgb(19.215686%,37.254902%,56.470588%);fill-opacity:1;" d="M 151.699219 33.230469 L 151.699219 33.527344 L 152.898438 33.527344 L 151.699219 33.230469 M 159.480469 33.230469 L 159.480469 33.527344 L 160.976562 33.527344 Z M 159.480469 33.230469 "/>
    <path style=" stroke:none;fill-rule:nonzero;fill:rgb(66.27451%,80.392157%,83.921569%);fill-opacity:1;" d="M 162.171875 33.230469 L 162.472656 33.527344 Z M 162.171875 33.230469 "/>
    <path style=" stroke:none;fill-rule:nonzero;fill:rgb(19.215686%,37.254902%,56.470588%);fill-opacity:1;" d="M 162.472656 33.230469 L 162.472656 33.527344 L 163.371094 33.527344 L 162.472656 33.230469 M 169.355469 33.230469 L 169.355469 33.527344 L 171.449219 33.527344 Z M 169.355469 33.230469 "/>
    <path style=" stroke:none;fill-rule:nonzero;fill:rgb(66.27451%,80.392157%,83.921569%);fill-opacity:1;" d="M 178.03125 33.230469 L 178.332031 33.527344 L 178.03125 33.230469 M 78.890625 33.628906 L 79.089844 33.726562 L 78.890625 33.628906 M 111.90625 33.527344 L 112.203125 33.828125 L 111.90625 33.527344 M 123.574219 33.527344 L 123.875 33.828125 Z M 123.574219 33.527344 "/>
    <path style=" stroke:none;fill-rule:nonzero;fill:rgb(19.215686%,37.254902%,56.470588%);fill-opacity:1;" d="M 145.714844 33.527344 L 145.417969 34.425781 L 145.714844 33.527344 M 151.101562 33.527344 L 151.402344 33.828125 L 151.101562 33.527344 M 160.976562 33.527344 L 161.277344 33.828125 Z M 160.976562 33.527344 "/>
    <path style=" stroke:none;fill-rule:nonzero;fill:rgb(66.27451%,80.392157%,83.921569%);fill-opacity:1;" d="M 161.972656 33.726562 L 162.074219 33.925781 Z M 161.972656 33.726562 "/>
    <path style=" stroke:none;fill-rule:nonzero;fill:rgb(19.215686%,37.254902%,56.470588%);fill-opacity:1;" d="M 177.132812 33.527344 L 177.433594 33.828125 Z M 177.132812 33.527344 "/>
    <path style=" stroke:none;fill-rule:nonzero;fill:rgb(66.27451%,80.392157%,83.921569%);fill-opacity:1;" d="M 177.433594 33.527344 L 177.730469 33.828125 L 177.433594 33.527344 M 70.8125 33.925781 L 71.011719 34.027344 L 70.8125 33.925781 M 77.695312 33.925781 L 77.894531 34.027344 L 77.695312 33.925781 M 90.0625 33.828125 L 90.0625 34.128906 L 92.457031 34.128906 L 90.0625 33.828125 M 110.410156 33.828125 L 110.410156 34.128906 L 111.90625 34.128906 Z M 110.410156 33.828125 "/>
    <path style=" stroke:none;fill-rule:nonzero;fill:rgb(19.215686%,37.254902%,56.470588%);fill-opacity:1;" d="M 123.574219 33.828125 L 123.875 34.128906 L 123.574219 33.828125 M 176.136719 33.925781 L 176.335938 34.027344 Z M 176.136719 33.925781 "/>
    <path style=" stroke:none;fill-rule:nonzero;fill:rgb(66.27451%,80.392157%,83.921569%);fill-opacity:1;" d="M 176.535156 33.828125 L 176.835938 34.128906 L 176.535156 33.828125 M 71.8125 34.128906 L 71.8125 34.425781 L 73.007812 34.425781 L 71.8125 34.128906 M 75.699219 34.128906 L 75.699219 34.425781 L 76.597656 34.425781 Z M 75.699219 34.128906 "/>
    <path style=" stroke:none;fill-rule:nonzero;fill:rgb(19.215686%,37.254902%,56.470588%);fill-opacity:1;" d="M 123.875 34.128906 L 124.171875 34.425781 L 123.875 34.128906 M 140.03125 34.128906 L 140.332031 34.425781 Z M 140.03125 34.128906 "/>
    <path style=" stroke:none;fill-rule:nonzero;fill:rgb(66.27451%,80.392157%,83.921569%);fill-opacity:1;" d="M 145.714844 34.128906 L 146.015625 34.425781 L 145.714844 34.128906 M 151.101562 34.128906 L 151.402344 34.425781 Z M 151.101562 34.128906 "/>
    <path style=" stroke:none;fill-rule:nonzero;fill:rgb(19.215686%,37.254902%,56.470588%);fill-opacity:1;" d="M 151.402344 34.128906 L 151.699219 34.425781 L 151.402344 34.128906 M 160.675781 34.128906 L 160.976562 34.425781 Z M 160.675781 34.128906 "/>
    <path style=" stroke:none;fill-rule:nonzero;fill:rgb(66.27451%,80.392157%,83.921569%);fill-opacity:1;" d="M 160.976562 34.128906 L 161.277344 34.425781 Z M 160.976562 34.128906 "/>
    <path style=" stroke:none;fill-rule:nonzero;fill:rgb(19.215686%,37.254902%,56.470588%);fill-opacity:1;" d="M 162.171875 34.128906 L 162.472656 34.425781 L 162.171875 34.128906 M 172.945312 34.128906 L 172.945312 34.425781 L 174.738281 34.425781 Z M 172.945312 34.128906 "/>
    <path style=" stroke:none;fill-rule:nonzero;fill:rgb(66.27451%,80.392157%,83.921569%);fill-opacity:1;" d="M 174.738281 34.128906 L 174.738281 34.425781 L 175.636719 34.425781 Z M 174.738281 34.128906 "/>
    <path style=" stroke:none;fill-rule:nonzero;fill:rgb(66.27451%,80.392157%,83.921569%);fill-opacity:1;" d="M 7.480469 36.222656 L 7.78125 36.523438 L 7.480469 36.222656 M 48.773438 36.222656 L 49.070312 36.523438 L 48.773438 36.222656 M 50.269531 36.523438 L 50.566406 36.820312 L 50.269531 36.523438 M 7.78125 36.820312 L 8.078125 37.121094 L 7.78125 36.820312 M 10.171875 37.121094 L 10.472656 37.421875 L 10.171875 37.121094 M 49.96875 37.121094 L 50.269531 37.421875 L 49.96875 37.121094 M 8.378906 37.71875 L 8.675781 38.019531 L 8.378906 37.71875 M 9.277344 38.320312 L 9.574219 38.617188 L 9.277344 38.320312 M 48.773438 38.320312 L 49.070312 38.617188 L 48.773438 38.320312 M 9.875 38.617188 L 10.171875 38.917969 L 9.875 38.617188 M 48.171875 38.617188 L 48.472656 38.917969 L 48.171875 38.617188 M 23.636719 38.917969 L 23.636719 41.3125 L 23.9375 41.3125 Z M 23.636719 38.917969 "/>
    <path style=" stroke:none;fill-rule:nonzero;fill:rgb(66.27451%,80.392157%,83.921569%);fill-opacity:1;" d="M 25.132812 39.214844 L 25.132812 41.011719 L 25.433594 41.011719 L 25.132812 39.214844 M 19.449219 41.3125 L 19.746094 41.613281 L 19.449219 41.3125 M 38.597656 41.3125 L 38.898438 41.613281 L 38.597656 41.3125 M 19.148438 41.613281 L 19.148438 42.507812 L 19.449219 42.507812 L 19.148438 41.613281 M 19.449219 42.507812 L 19.746094 42.808594 Z M 19.449219 42.507812 "/>
  </g>
</svg>